<svg width="80" height="17" viewBox="0 0 80 17" fill="none" xmlns="http://www.w3.org/2000/svg">
<path d="M13.23 5.01C13.896 4.92 15.066 5.064 15.192 3.984C15.282 3.21 15.3 2.724 15.192 2.13C14.94 1.086 14.526 0.923999 13.734 0.87C12.438 0.69 1.8 0.78 0.81 0.942L1.296 2.868C2.466 2.742 11.556 2.778 12.546 2.796C12.816 2.796 12.87 2.85 12.87 3.084C12.87 3.228 12.906 3.354 12.474 3.354C8.748 3.318 5.148 3.282 2.232 3.372C0.81 3.408 0.81 3.966 0.774 5.064C0.702 6.882 1.872 7.08 4.266 7.278C4.662 7.314 5.598 7.332 6.768 7.332C6.768 7.476 6.75 7.62 6.75 7.728C5.526 7.71 2.25 7.692 1.044 7.62L0.882 9.402C3.816 9.582 12.438 9.546 15.48 9.384L15.192 7.584C14.04 7.638 10.404 7.746 9.342 7.71V7.314C11.97 7.26 14.724 7.17 15.372 7.008L14.922 5.298C13.644 5.478 5.688 5.568 4.842 5.514C3.312 5.406 3.222 5.424 3.186 5.226C3.15 4.992 3.15 5.01 3.582 5.01C4.716 5.01 11.808 5.082 13.23 5.01ZM13.068 13.92C13.734 13.866 14.958 13.938 15.084 12.858C15.192 12.066 15.138 11.652 15.084 11.112C14.922 10.248 14.472 10.104 13.536 10.032C12.186 9.906 3.78 9.762 1.116 10.032L1.566 11.796C2.754 11.706 11.484 11.652 12.456 11.76C12.834 11.796 12.726 11.796 12.744 11.94C12.762 12.156 12.78 12.21 12.096 12.21H2.214C0.99 12.21 0.99 12.768 0.954 13.83C0.882 15.792 1.962 16.098 4.482 16.224C5.868 16.296 14.202 16.242 15.39 15.972L14.922 14.226C13.644 14.406 6.21 14.532 4.968 14.46C3.6 14.406 3.366 14.388 3.366 14.028C3.366 13.866 3.438 13.92 3.834 13.92C4.878 13.92 11.682 13.992 13.068 13.92ZM25.927 6.414C26.665 6.342 27.331 6.252 27.475 5.28C27.637 4.542 27.547 2.904 27.457 2.22C27.385 1.482 26.863 1.086 26.089 1.032C25.243 1.014 18.313 0.959999 17.323 1.05L17.521 3.084C18.421 3.048 24.415 3.048 24.883 3.048C25.243 3.066 25.171 3.066 25.171 3.426V4.2C25.171 4.434 25.135 4.488 25.009 4.488C24.595 4.524 18.799 4.416 18.061 4.524C16.855 4.74 16.783 5.982 16.837 7.278C16.945 9.402 18.493 9.852 20.113 9.924C21.517 10.014 26.215 9.906 27.475 9.78L27.313 7.8C26.125 7.836 21.283 7.926 20.347 7.854C19.429 7.764 19.159 7.764 19.141 7.278C19.087 6.666 19.141 6.468 19.303 6.414C19.573 6.36 25.243 6.504 25.927 6.414ZM28.843 1.266C29.095 2.85 29.095 7.782 28.915 9.618L31.327 9.78C31.543 7.782 31.507 2.652 31.165 0.905999L28.843 1.266ZM17.197 13.578C17.197 15.774 20.743 16.476 24.325 16.476C27.961 16.476 31.165 15.648 31.165 13.506C31.165 11.49 28.159 10.536 24.397 10.518C20.599 10.5 17.197 11.328 17.197 13.578ZM19.627 13.614C19.627 12.696 22.147 12.354 24.361 12.354C26.359 12.354 28.699 12.624 28.699 13.524C28.699 14.298 26.899 14.586 24.325 14.586C22.417 14.586 19.627 14.442 19.627 13.614ZM37.9221 13.83C37.4901 13.884 37.0941 13.866 36.7521 13.848C36.6801 13.02 36.7161 4.002 36.8421 2.958H37.9581C38.0301 4.056 38.0301 13.236 37.9221 13.83ZM40.3521 3.03C40.3881 3.03 41.3061 3.03 41.5401 3.048L41.6481 0.995999C40.0821 0.87 34.9341 0.87 33.1341 0.959999L33.2421 2.976L34.5201 2.994C34.3221 4.524 34.3221 13.146 34.3581 13.74H33.1161L32.9721 15.738C35.1321 15.792 39.5601 15.774 41.5761 15.756L41.4501 13.776H40.3701C40.4601 13.164 40.4601 4.092 40.3521 3.03ZM42.2961 1.176C42.4401 2.922 42.5301 4.632 42.5481 6.378H41.1981L41.2521 8.448H42.6201C42.6921 10.086 42.5661 13.956 42.4761 15.666L44.7981 16.044C45.0141 14.838 45.0141 2.526 44.6541 0.762L42.2961 1.176ZM45.1941 1.122C45.3921 2.688 45.4821 14.55 45.3381 15.594L47.6961 15.9C47.9661 14.946 47.9481 2.4 47.5341 0.671999L45.1941 1.122ZM49.1611 8.52C49.1071 13.326 50.9431 16.098 53.6251 16.098C56.1991 16.098 58.1071 13.65 58.1611 8.52C58.2151 3.318 56.2891 0.923999 53.7511 0.87C51.2851 0.833999 49.1971 3.516 49.1611 8.52ZM51.5911 8.574C51.5911 4.758 52.8691 3.012 53.7511 3.012C54.5251 3.012 55.7311 4.47 55.7311 8.574C55.7311 12.318 54.5251 13.974 53.6431 13.974C52.6531 13.974 51.5911 12.354 51.5911 8.574ZM59.8531 0.995999C60.1951 2.778 60.2851 10.392 60.0151 15.828L62.4631 16.098C62.8411 11.67 62.6611 3.282 62.3371 0.707999L59.8531 0.995999ZM69.2921 13.686C69.1121 12.786 69.1481 4.326 69.3461 3.174H71.4881C71.8121 6.108 71.6861 12.966 71.5061 13.686H69.2921ZM75.3041 1.194C73.7201 0.959999 67.1321 0.995999 65.3681 1.176L65.4941 3.192C65.7461 3.192 66.9521 3.174 66.9521 3.174C66.6641 4.704 66.7721 12.786 66.8981 13.632H65.3321L65.4041 15.612C67.3301 15.684 73.6301 15.666 75.3221 15.63L75.2321 13.65L73.9541 13.632C74.2241 10.302 74.0621 4.254 73.9181 3.156L75.1961 3.174L75.3041 1.194ZM74.8721 8.088L77.1401 8.016C77.1941 9.366 77.1401 14.262 77.1221 15.72L79.4441 16.08C79.6781 15.126 79.5881 2.346 79.2101 0.6L76.7801 1.086C76.9421 1.788 77.0501 5.208 77.0501 6.018L74.8001 6.072L74.8721 8.088Z" fill="#232323"/>
</svg>
