<svg width="324" height="189" viewBox="0 0 324 189" fill="none" xmlns="http://www.w3.org/2000/svg">
<g filter="url(#filter0_d)">
<path opacity="0.7" d="M6.17828 60.9772L85.1156 17.3703L85.0022 21.7688C85.0022 21.7688 93.59 21.5517 94.102 23.883C94.6141 26.2144 94.8133 29.5793 94.8133 29.5793L99.0506 31.67L98.1123 34.7706L100.387 35.2992L104.113 35.0585L105.449 38.6877L106.274 39.9856L21.8486 85.6359L23.4122 80.4682L23.5257 76.0698L20.1132 75.2769L20.7387 73.2098L19.4019 69.5806L14.852 68.5235C14.852 68.5235 14.0272 67.2257 13.5152 64.8943C13.0032 62.5629 8.65253 64.8707 8.65253 64.8707L6.17828 60.9772Z" fill="#FFFDFB"/>
<path d="M20.8932 72.8062L19.8682 73.3433C19.2384 72.3081 18.6328 71.2341 18.0722 70.1707L19.1292 69.6855C19.6706 70.7334 20.2714 71.784 20.8932 72.8062Z" fill="#1C7F0A"/>
<path d="M20.5835 73.0077C20.2944 72.5404 19.6991 72.2791 19.1002 72.2613C18.5045 72.2331 17.9148 72.4173 17.3879 72.6717C17.5031 73.0762 17.8165 73.427 18.2429 73.5711C18.5712 73.6811 18.9416 73.6566 19.2686 73.5776C19.6101 73.4909 19.9227 73.3418 20.2466 73.1955L20.7492 73.0575C21.0393 72.9032 21.3439 72.7413 21.6019 72.535C21.8599 72.3288 22.0778 72.0577 22.1459 71.7627C22.2464 71.3643 22.1168 70.8898 21.8356 70.5909C21.3311 70.8505 20.8442 71.2475 20.5423 71.71C20.2436 72.1621 20.1027 72.651 20.3546 73.1208" fill="#1C7F0A"/>
<path d="M18.448 70.4373C17.919 70.6242 17.7034 70.7734 16.9037 70.553C16.2694 70.3823 15.5095 69.4943 15.4594 68.8056C15.4281 68.3655 15.8919 67.8083 16.2915 68.035C16.6029 68.1967 16.6485 68.7067 17.0116 68.7029C17.0477 68.3563 16.7091 68.0884 16.7452 67.7417C16.9233 67.8278 17.5145 67.8663 17.6927 67.9524C17.7916 67.5206 17.8374 67.0653 17.9362 66.6334C17.9541 66.5377 17.9897 66.424 18.0878 66.3804C18.1746 66.3341 18.2758 66.3578 18.3737 66.3918C19.3212 66.6801 20.0024 67.5498 20.0038 68.4711C19.9828 69.3872 19.3918 70.0811 18.448 70.4373Z" fill="#D11340"/>
<path d="M31.0773 67.3526L30.0523 67.8897C29.4225 66.8545 28.8249 65.7935 28.2562 64.7171L29.3133 64.2319C29.8772 65.285 30.4667 66.333 31.0773 67.3526Z" fill="#1C7F0A"/>
<path d="M30.771 67.5436C30.482 67.0763 29.8867 66.815 29.2877 66.7972C28.6888 66.7793 28.1023 66.9532 27.5754 67.2076C27.6906 67.6121 28.004 67.9629 28.4304 68.107C28.7587 68.217 29.1291 68.1925 29.4561 68.1135C29.7976 68.0267 30.1102 67.8777 30.4341 67.7313L30.9367 67.5934C31.2268 67.4391 31.5314 67.2771 31.7894 67.0709C32.0474 66.8647 32.2653 66.5936 32.3334 66.2986C32.4339 65.9002 32.3043 65.4257 32.0231 65.1268C31.5186 65.3865 31.0317 65.7834 30.7298 66.2459C30.4311 66.698 30.2902 67.1869 30.5421 67.6567" fill="#1C7F0A"/>
<path d="M28.6438 64.9861C28.1148 65.173 27.8992 65.3223 27.0995 65.1018C26.4652 64.9311 25.7053 64.0431 25.6552 63.3545C25.6239 62.9144 26.0877 62.3571 26.4873 62.5838C26.7987 62.7455 26.8443 63.2555 27.2075 63.2517C27.2435 62.9051 26.905 62.6372 26.941 62.2905C27.1191 62.3766 27.7103 62.4151 27.8885 62.5012C27.9874 62.0694 28.0332 61.6141 28.1321 61.1822C28.1499 61.0866 28.1855 60.9728 28.2836 60.9292C28.3704 60.8829 28.4716 60.9066 28.5695 60.9406C29.517 61.229 30.1982 62.0986 30.1996 63.02C30.1818 63.9257 29.5876 64.63 28.6438 64.9861Z" fill="#D11340"/>
<path d="M41.276 61.8909L40.251 62.428C39.6212 61.3928 39.0156 60.3188 38.455 59.2554L39.512 58.7703C40.0646 59.8207 40.6655 60.8713 41.276 61.8909Z" fill="#1C7F0A"/>
<path d="M40.9668 62.0922C40.6778 61.6249 40.0824 61.3636 39.4835 61.3458C38.8845 61.3279 38.2981 61.5018 37.7712 61.7562C37.8864 62.1606 38.1998 62.5115 38.6262 62.6556C38.9545 62.7656 39.3249 62.7411 39.6519 62.6621C39.9934 62.5754 40.306 62.4263 40.6299 62.2799L41.1325 62.142C41.4226 61.9877 41.7272 61.8258 41.9852 61.6196C42.2432 61.4133 42.4611 61.1422 42.5292 60.8472C42.6297 60.4488 42.5001 59.9743 42.2189 59.6754C41.7145 59.935 41.2275 60.332 40.9256 60.7945C40.6269 61.2466 40.486 61.7355 40.7379 62.2052" fill="#1C7F0A"/>
<path d="M38.8396 59.5347C38.3106 59.7216 38.095 59.8708 37.2953 59.6504C36.661 59.4797 35.9011 58.5917 35.851 57.9031C35.8197 57.463 36.2835 56.9057 36.6831 57.1324C36.9945 57.2941 37.0401 57.8041 37.4032 57.8004C37.4393 57.4537 37.1008 57.1858 37.1368 56.8391C37.3149 56.9252 37.9061 56.9637 38.0843 57.0498C38.1832 56.618 38.229 56.1627 38.3279 55.7308C38.3457 55.6352 38.3813 55.5214 38.4794 55.4778C38.5662 55.4316 38.6674 55.4552 38.7653 55.4893C39.7128 55.7776 40.394 56.6472 40.3954 57.5686C40.3776 58.4743 39.7722 59.1759 38.8396 59.5347Z" fill="#D11340"/>
<path d="M51.4718 56.4396L50.4468 56.9766C49.817 55.9414 49.2114 54.8674 48.6508 53.804L49.7078 53.3189C50.2604 54.3693 50.85 55.4173 51.4718 56.4396Z" fill="#1C7F0A"/>
<path d="M51.1621 56.641C50.8731 56.1737 50.2778 55.9124 49.6788 55.8946C49.0831 55.8664 48.4935 56.0506 47.9665 56.305C48.0817 56.7095 48.3951 57.0603 48.8215 57.2044C49.1498 57.3144 49.5202 57.2899 49.8472 57.2109C50.1887 57.1241 50.5013 56.9751 50.8252 56.8288L51.3279 56.6908C51.6179 56.5365 51.9226 56.3746 52.1805 56.1683C52.4385 55.9621 52.6564 55.691 52.7245 55.396C52.825 54.9976 52.6955 54.5231 52.4142 54.2242C51.9098 54.4839 51.4228 54.8808 51.1209 55.3433C50.8222 55.7954 50.6813 56.2843 50.9332 56.7541" fill="#1C7F0A"/>
<path d="M49.0349 54.0835C48.5059 54.2704 48.2904 54.4197 47.4906 54.1992C46.8563 54.0285 46.0964 53.1405 46.0463 52.4519C46.015 52.0118 46.4788 51.4545 46.8784 51.6812C47.1898 51.8429 47.2354 52.3529 47.5986 52.3491C47.6346 52.0025 47.2961 51.7346 47.3321 51.388C47.5103 51.474 48.1015 51.5125 48.2796 51.5986C48.3785 51.1668 48.4243 50.7115 48.5232 50.2797C48.541 50.184 48.5766 50.0702 48.6747 50.0266C48.7615 49.9804 48.8627 50.004 48.9607 50.0381C49.9081 50.3264 50.5893 51.196 50.5907 52.1174C50.5729 53.0231 49.9675 53.7248 49.0349 54.0835Z" fill="#D11340"/>
<path d="M61.6676 50.9884L60.6426 51.5254C60.0128 50.4902 59.4072 49.4162 58.8466 48.3528L59.9036 47.8677C60.4562 48.9181 61.0458 49.9661 61.6676 50.9884Z" fill="#1C7F0A"/>
<path d="M61.3579 51.1898C61.0689 50.7225 60.4736 50.4613 59.8746 50.4434C59.2757 50.4256 58.6893 50.5994 58.1623 50.8538C58.2775 51.2583 58.5909 51.6091 59.0173 51.7532C59.3456 51.8633 59.716 51.8388 60.043 51.7598C60.37 51.6807 60.6971 51.524 61.021 51.3776L61.5236 51.2397C61.8137 51.0854 62.1183 50.9234 62.3763 50.7172C62.6343 50.511 62.8522 50.2399 62.9203 49.9449C63.0208 49.5464 62.8913 49.072 62.61 48.773C62.1056 49.0327 61.6186 49.4297 61.3167 49.8921C61.018 50.3442 60.8771 50.8332 61.129 51.3029" fill="#1C7F0A"/>
<path d="M59.2224 48.6194C58.6935 48.8063 58.4779 48.9556 57.6781 48.7351C57.0438 48.5644 56.2839 47.6764 56.2338 46.9877C56.2025 46.5477 56.6663 45.9904 57.0659 46.2171C57.3773 46.3788 57.4229 46.8888 57.7861 46.885C57.8221 46.5384 57.4836 46.2705 57.5196 45.9238C57.6978 46.0099 58.289 46.0484 58.4672 46.1345C58.566 45.7027 58.6119 45.2474 58.7107 44.8155C58.7286 44.7198 58.7641 44.6061 58.8622 44.5625C58.9491 44.5162 59.0502 44.5399 59.1482 44.5739C60.0956 44.8623 60.7769 45.7319 60.7783 46.6533C60.7685 47.572 60.1663 48.2633 59.2224 48.6194Z" fill="#D11340"/>
<path d="M71.8659 45.5269L70.8409 46.064C70.2111 45.0288 69.6054 43.9548 69.0448 42.8914L70.1019 42.4063C70.6545 43.4567 71.2441 44.5047 71.8659 45.5269Z" fill="#1C7F0A"/>
<path d="M71.5561 45.7284C71.2671 45.2611 70.6718 44.9998 70.0729 44.982C69.4739 44.9641 68.8875 45.138 68.3605 45.3924C68.4758 45.7969 68.7891 46.1477 69.2156 46.2918C69.5439 46.4018 69.9142 46.3774 70.2412 46.2983C70.5827 46.2116 70.8954 46.0625 71.2193 45.9162L71.7219 45.7782C72.012 45.624 72.3166 45.4619 72.5746 45.2557C72.8326 45.0495 73.0504 44.7784 73.1186 44.4834C73.2191 44.085 73.0895 43.6105 72.8082 43.3116C72.3038 43.5713 71.8168 43.9682 71.5149 44.4307C71.2163 44.8828 71.0753 45.3717 71.3273 45.8415" fill="#1C7F0A"/>
<path d="M69.4178 43.1682C68.8888 43.3551 68.6732 43.5044 67.8734 43.2839C67.2391 43.1132 66.4792 42.2252 66.4291 41.5366C66.3978 41.0965 66.8616 40.5393 67.2612 40.766C67.5726 40.9276 67.6183 41.4376 67.9814 41.4338C68.0174 41.0872 67.6789 40.8193 67.7149 40.4726C67.8931 40.5587 68.4843 40.5973 68.6625 40.6834C68.7613 40.2515 68.8072 39.7962 68.906 39.3643C68.9239 39.2687 68.9594 39.1549 69.0575 39.1113C69.1444 39.0651 69.2456 39.0887 69.3435 39.1227C70.2909 39.4111 70.9722 40.2807 70.9736 41.2021C70.9671 42.1105 70.3616 42.8121 69.4178 43.1682Z" fill="#D11340"/>
<path d="M82.0617 40.076L81.0367 40.613C80.4069 39.5778 79.8093 38.5168 79.2406 37.4404L80.2977 36.9553C80.8471 38.0161 81.4479 39.0667 82.0617 40.076Z" fill="#1C7F0A"/>
<path d="M81.7524 40.2772C81.4634 39.8099 80.8681 39.5487 80.2691 39.5308C79.6734 39.5026 79.0838 39.6868 78.5568 39.9412C78.6721 40.3457 78.9854 40.6965 79.4119 40.8406C79.7401 40.9507 80.1105 40.9262 80.4375 40.8471C80.779 40.7604 81.0916 40.6114 81.4155 40.465L81.9182 40.3271C82.2083 40.1728 82.5129 40.0108 82.7709 39.8046C83.0288 39.5984 83.2467 39.3273 83.3148 39.0323C83.4154 38.6338 83.2858 38.1593 83.0045 37.8604C82.5001 38.1201 82.0131 38.5171 81.7112 38.9795C81.4125 39.4316 81.2716 39.9206 81.5236 40.3903" fill="#1C7F0A"/>
<path d="M79.6136 37.7172C79.0846 37.9041 78.869 38.0535 78.0692 37.833C77.4349 37.6623 76.675 36.7743 76.6249 36.0856C76.5936 35.6455 77.0574 35.0883 77.4571 35.315C77.7685 35.4767 77.8141 35.9867 78.1772 35.9829C78.2132 35.6362 77.8747 35.3684 77.9107 35.0217C78.0889 35.1078 78.6801 35.1463 78.8583 35.2324C78.9572 34.8006 79.003 34.3452 79.1018 33.9134C79.1197 33.8177 79.1553 33.704 79.2534 33.6603C79.3402 33.6141 79.4414 33.6378 79.5393 33.6718C80.4868 33.9601 81.168 34.8298 81.1694 35.7511C81.1629 36.6595 80.5574 37.3611 79.6136 37.7172Z" fill="#D11340"/>
<path d="M92.2574 34.6246L91.2325 35.1616C90.6027 34.1264 89.997 33.0525 89.4364 31.9891L90.4935 31.5039C91.0461 32.5544 91.6357 33.6024 92.2574 34.6246Z" fill="#1C7F0A"/>
<path d="M91.9477 34.826C91.6587 34.3587 91.0634 34.0975 90.4645 34.0796C89.8688 34.0514 89.2791 34.2357 88.7521 34.49C88.8674 34.8945 89.1807 35.2454 89.6072 35.3894C89.9355 35.4995 90.3058 35.475 90.6328 35.396C90.9743 35.3092 91.287 35.1602 91.6109 35.0138L92.1135 34.8759C92.4036 34.7216 92.7082 34.5596 92.9662 34.3534C93.2242 34.1472 93.442 33.8761 93.5102 33.5811C93.6107 33.1826 93.4811 32.7082 93.1998 32.4093C92.6954 32.6689 92.2084 33.0659 91.9065 33.5283C91.6079 33.9804 91.4669 34.4694 91.7189 34.9391" fill="#1C7F0A"/>
<path d="M89.8093 32.2659C89.2804 32.4528 89.0648 32.602 88.265 32.3816C87.6307 32.2109 86.8708 31.3229 86.8207 30.6343C86.7894 30.1942 87.2532 29.6369 87.6528 29.8636C87.9642 30.0253 88.0099 30.5353 88.373 30.5315C88.409 30.1848 88.0705 29.917 88.1065 29.5703C88.2847 29.6564 88.8759 29.6949 89.0541 29.781C89.1529 29.3492 89.1988 28.8938 89.2976 28.462C89.3155 28.3663 89.351 28.2526 89.4491 28.209C89.536 28.1627 89.6372 28.1864 89.7351 28.2204C90.6825 28.5087 91.3638 29.3783 91.3652 30.2997C91.3587 31.2081 90.7532 31.9097 89.8093 32.2659Z" fill="#D11340"/>
</g>
<g filter="url(#filter1_d)">
<path d="M226.624 161.649L292.396 92.4435L293.69 97.2932C293.69 97.2932 302.295 94.7239 303.559 97.1391C304.822 99.5542 306.101 103.187 306.101 103.187L311.051 104.327L311.096 107.979L313.563 107.94L317.249 106.665L319.761 110.278L321.01 111.476L250.348 184.41L250.273 178.324L248.979 173.474L245.278 173.532L245.248 171.098L242.736 167.484L237.801 167.562C237.801 167.562 236.553 166.364 235.289 163.948C234.025 161.533 230.37 165.243 230.37 165.243L226.624 161.649Z" fill="#FCECDE"/>
<path d="M237.841 167.532C237.841 167.532 237.729 167.412 237.541 167.209C237.309 167.456 237.09 167.715 236.858 167.962C237.008 168.093 237.158 168.237 237.308 168.368C237.564 168.084 237.819 167.8 238.063 167.528L237.841 167.532Z" fill="#EF1616"/>
<path d="M308.136 103.69C308.073 103.63 308.011 103.582 307.936 103.522C307.912 103.559 307.876 103.596 307.851 103.621L308.136 103.69Z" fill="#00824D"/>
<path d="M269.98 122.327C269.83 122.195 269.668 122.064 269.518 121.933C267.799 123.713 266.079 125.506 264.372 127.298C264.521 127.43 264.671 127.573 264.833 127.704C266.528 125.912 268.26 124.119 269.98 122.327Z" fill="#00824D"/>
<path d="M274.395 117.792L273.946 117.374C272.604 118.747 271.262 120.108 269.933 121.493C270.082 121.624 270.244 121.755 270.394 121.886C271.724 120.526 273.053 119.153 274.395 117.792Z" fill="#00824D"/>
<path d="M236.709 157.17L231.382 162.952C231.532 163.095 231.682 163.227 231.832 163.37L237.171 157.575C237.021 157.432 236.871 157.301 236.709 157.17Z" fill="#00824D"/>
<path d="M264.419 128.155C264.27 128.024 264.12 127.881 263.958 127.75C262.421 129.369 260.885 131.001 259.361 132.632L259.81 133.038C261.347 131.407 262.871 129.775 264.419 128.155Z" fill="#00824D"/>
<path d="M230.978 163.394L229.819 164.642L230.257 165.06L231.415 163.8C231.278 163.669 231.128 163.538 230.978 163.394Z" fill="#00824D"/>
<path d="M278.897 113.208C278.735 113.077 278.586 112.946 278.424 112.815C277.057 114.176 275.703 115.561 274.362 116.946L274.811 117.365C276.177 115.979 277.531 114.582 278.897 113.208Z" fill="#00824D"/>
<path d="M293.316 99.3339L292.855 98.928C291.621 100.056 290.413 101.219 289.204 102.371L289.654 102.789C290.874 101.637 292.083 100.462 293.316 99.3339Z" fill="#00824D"/>
<path d="M284.109 108.102C283.947 107.971 283.798 107.84 283.636 107.709C282.037 109.268 280.438 110.828 278.852 112.399C279.014 112.531 279.164 112.662 279.326 112.793C280.912 111.209 282.511 109.65 284.109 108.102Z" fill="#00824D"/>
<path d="M245.308 148.728C246.6 147.319 247.905 145.911 249.209 144.502C249.059 144.359 248.922 144.215 248.772 144.072C247.468 145.492 246.151 146.901 244.859 148.31L242.75 150.608C242.912 150.739 243.074 150.858 243.236 150.989L245.308 148.728Z" fill="#00824D"/>
<path d="M293.773 98.9167C294.615 98.1486 295.47 97.3926 296.313 96.6367C295.87 96.7292 295.451 96.8214 295.095 96.9125C294.508 97.4452 293.91 97.9659 293.312 98.511L293.773 98.9167Z" fill="#00824D"/>
<path d="M259.408 133.478L258.959 133.071C257.374 134.765 255.79 136.47 254.217 138.164L254.666 138.582C256.239 136.877 257.824 135.183 259.408 133.478Z" fill="#00824D"/>
<path d="M242.812 151.44C242.65 151.309 242.488 151.19 242.326 151.059L237.109 156.718C237.259 156.849 237.421 156.98 237.57 157.124L242.812 151.44Z" fill="#00824D"/>
<path d="M289.212 103.205L288.763 102.787C287.188 104.273 285.613 105.771 284.051 107.282C284.213 107.413 284.363 107.544 284.525 107.675C286.087 106.165 287.649 104.679 289.212 103.205Z" fill="#00824D"/>
<path d="M254.265 139.021L253.816 138.603C252.255 140.283 250.707 141.952 249.172 143.632C249.321 143.776 249.459 143.92 249.609 144.063C251.144 142.383 252.705 140.702 254.265 139.021Z" fill="#00824D"/>
<path d="M293.946 107.631L293.497 107.213C292.07 108.685 290.656 110.156 289.229 111.64C289.378 111.771 289.54 111.902 289.69 112.034C291.117 110.574 292.532 109.103 293.946 107.631Z" fill="#EF1616"/>
<path d="M248.05 155.629C246.246 157.606 244.442 159.582 242.638 161.559C242.788 161.69 242.938 161.834 243.1 161.965C244.904 159.976 246.708 157.999 248.524 156.01C248.362 155.891 248.212 155.76 248.05 155.629Z" fill="#EF1616"/>
<path d="M264.815 138.357L264.366 137.95C262.769 139.668 261.16 141.387 259.563 143.105L260.012 143.523C261.609 141.793 263.218 140.087 264.815 138.357Z" fill="#EF1616"/>
<path d="M254.42 149.591C254.27 149.448 254.121 149.304 253.983 149.173C252.143 151.174 250.289 153.176 248.461 155.178C248.623 155.309 248.773 155.44 248.935 155.571C250.751 153.582 252.58 151.593 254.42 149.591Z" fill="#EF1616"/>
<path d="M259.611 143.962L259.161 143.543C257.564 145.261 255.98 146.991 254.383 148.721C254.533 148.865 254.683 149.008 254.82 149.14C256.417 147.422 258.002 145.692 259.611 143.962Z" fill="#EF1616"/>
<path d="M298.402 103.016C299.634 101.742 300.878 100.48 302.11 99.2065C301.96 99.0752 301.798 98.9319 301.648 98.8006C300.416 100.074 299.172 101.336 297.94 102.61L298.402 103.016Z" fill="#EF1616"/>
<path d="M275.458 127.01C275.308 126.878 275.146 126.735 274.996 126.604C273.252 128.446 271.509 130.299 269.777 132.141C269.927 132.272 270.077 132.416 270.227 132.547C271.97 130.705 273.714 128.864 275.458 127.01Z" fill="#EF1616"/>
<path d="M289.287 112.485C289.138 112.354 288.976 112.223 288.826 112.091C287.289 113.686 285.765 115.281 284.241 116.876C284.403 117.008 284.553 117.139 284.715 117.27C286.226 115.663 287.751 114.068 289.287 112.485Z" fill="#EF1616"/>
<path d="M294.363 107.203C295.57 105.954 296.777 104.705 297.985 103.456L297.523 103.05C296.316 104.287 295.121 105.536 293.913 106.785L294.363 107.203Z" fill="#EF1616"/>
<path d="M284.287 117.71C284.125 117.579 283.975 117.447 283.813 117.316C282.399 118.8 280.984 120.271 279.582 121.755L280.031 122.173C281.458 120.677 282.872 119.194 284.287 117.71Z" fill="#EF1616"/>
<path d="M279.627 122.601L279.178 122.195C277.922 123.518 276.666 124.841 275.411 126.176C275.56 126.307 275.722 126.45 275.872 126.582C277.128 125.247 278.371 123.924 279.627 122.601Z" fill="#EF1616"/>
<path d="M269.825 132.998C269.676 132.867 269.526 132.723 269.376 132.592C267.84 134.224 266.316 135.867 264.78 137.511L265.229 137.917C266.753 136.286 268.289 134.642 269.825 132.998Z" fill="#EF1616"/>
<path d="M242.238 162.01C240.666 163.739 239.093 165.469 237.534 167.211C237.721 167.415 237.834 167.534 237.834 167.534L238.068 167.53C239.604 165.826 241.151 164.121 242.699 162.416C242.55 162.284 242.388 162.153 242.238 162.01Z" fill="#EF1616"/>
<path d="M302.53 98.7772C302.92 98.3693 303.323 97.9612 303.714 97.5655C303.65 97.4327 303.575 97.2881 303.511 97.1553C303.486 97.1071 303.436 97.0593 303.398 97.0113C302.959 97.4687 302.52 97.9139 302.068 98.3715C302.23 98.5025 302.38 98.646 302.53 98.7772Z" fill="#EF1616"/>
<path d="M276.646 138.412C276.795 138.555 276.945 138.686 277.095 138.818C278.862 136.903 280.642 134.999 282.41 133.072C282.26 132.941 282.098 132.81 281.948 132.666C280.193 134.593 278.413 136.509 276.646 138.412Z" fill="#00824D"/>
<path d="M296.267 117.712C297.546 116.279 298.838 114.846 300.105 113.413L299.656 112.995C298.376 114.44 297.085 115.873 295.805 117.318C295.955 117.449 296.117 117.58 296.267 117.712Z" fill="#00824D"/>
<path d="M271.697 143.757L272.146 144.163C273.67 142.531 275.182 140.9 276.693 139.269C276.544 139.125 276.394 138.994 276.244 138.863C274.733 140.494 273.209 142.125 271.697 143.757Z" fill="#00824D"/>
<path d="M282.35 132.226C282.5 132.357 282.662 132.489 282.812 132.632C283.994 131.347 285.151 130.05 286.334 128.765L285.884 128.346C284.702 129.644 283.532 130.941 282.35 132.226Z" fill="#00824D"/>
<path d="M248.74 167.787C247.594 168.962 246.447 170.15 245.288 171.325L245.298 172.177C246.604 170.853 247.897 169.517 249.202 168.193C249.04 168.062 248.89 167.918 248.74 167.787Z" fill="#00824D"/>
<path d="M291.065 122.624C291.215 122.756 291.377 122.887 291.539 123.018C292.989 121.4 294.426 119.782 295.877 118.163C295.727 118.032 295.565 117.901 295.415 117.77C293.953 119.388 292.515 121.018 291.065 122.624Z" fill="#00824D"/>
<path d="M286.288 127.894L286.737 128.313C288.2 126.694 289.674 125.088 291.137 123.469C290.987 123.338 290.825 123.207 290.663 123.076C289.213 124.694 287.738 126.288 286.288 127.894Z" fill="#00824D"/>
<path d="M308.411 103.929C308.448 103.88 308.496 103.831 308.533 103.782L308.136 103.692C308.224 103.775 308.324 103.846 308.411 103.929Z" fill="#00824D"/>
<path d="M266.37 149.413L266.819 149.831C268.466 148.1 270.099 146.358 271.733 144.615L271.284 144.209C269.65 145.94 268.016 147.682 266.37 149.413Z" fill="#00824D"/>
<path d="M255.385 160.948C255.547 161.079 255.697 161.21 255.859 161.341C257.591 159.549 259.311 157.744 261.042 155.939C260.893 155.796 260.743 155.652 260.605 155.521C258.861 157.326 257.13 159.143 255.385 160.948Z" fill="#00824D"/>
<path d="M249.155 167.348C249.305 167.479 249.454 167.622 249.604 167.754C251.556 165.763 253.495 163.772 255.435 161.769C255.285 161.638 255.123 161.506 254.961 161.375C253.046 163.378 251.094 165.369 249.155 167.348Z" fill="#00824D"/>
<path d="M300.496 112.949C301.702 111.59 302.884 110.22 304.077 108.861L303.616 108.455C302.422 109.814 301.241 111.172 300.047 112.531L300.496 112.949Z" fill="#00824D"/>
<path d="M304.02 108.003L304.481 108.409C305.663 107.063 306.844 105.729 308.014 104.383C307.864 104.252 307.702 104.121 307.552 103.977C306.383 105.323 305.189 106.657 304.02 108.003Z" fill="#00824D"/>
<path d="M261.006 155.069C261.156 155.212 261.305 155.356 261.443 155.487C263.101 153.744 264.76 152.014 266.418 150.259L265.969 149.84C264.323 151.595 262.664 153.338 261.006 155.069Z" fill="#00824D"/>
<path d="M261.376 166.123C261.526 166.254 261.688 166.386 261.838 166.529L266.789 161.313C266.639 161.169 266.489 161.038 266.339 160.895L261.376 166.123Z" fill="#EF1616"/>
<path d="M255.123 172.718C255.272 172.849 255.422 172.993 255.584 173.124L261.437 166.956C261.288 166.825 261.126 166.694 260.976 166.55L255.123 172.718Z" fill="#EF1616"/>
<path d="M272.159 154.75L272.607 155.165L277.599 149.908L277.152 149.494L272.159 154.75Z" fill="#EF1616"/>
<path d="M315.72 107.941L315.21 107.597C314.857 108.089 314.492 108.581 314.14 109.074C314.29 109.205 314.439 109.348 314.602 109.479C314.979 108.962 315.356 108.457 315.72 107.941Z" fill="#EF1616"/>
<path d="M266.752 160.455C266.902 160.598 267.052 160.729 267.202 160.873L272.201 155.607L271.752 155.189L266.752 160.455Z" fill="#EF1616"/>
<path d="M299.307 126.133L297.454 128.074C297.603 128.205 297.765 128.336 297.915 128.467L299.744 126.539C300.585 125.649 301.427 124.759 302.28 123.868C302.131 123.737 301.969 123.594 301.819 123.462C300.978 124.353 300.136 125.243 299.307 126.133Z" fill="#EF1616"/>
<path d="M288.405 137.619C288.555 137.751 288.705 137.894 288.867 138.025L292.391 134.316L291.941 133.898L288.405 137.619Z" fill="#EF1616"/>
<path d="M282.503 143.845C282.653 143.988 282.803 144.119 282.953 144.263L288.452 138.478C288.303 138.347 288.153 138.203 287.991 138.072L282.503 143.845Z" fill="#EF1616"/>
<path d="M302.235 123.022C302.385 123.154 302.547 123.297 302.696 123.428C303.952 122.093 305.208 120.734 306.451 119.363L306.001 118.944C304.758 120.316 303.503 121.675 302.235 123.022Z" fill="#EF1616"/>
<path d="M306.854 118.911C308.121 117.502 309.364 116.07 310.581 114.614L310.12 114.208C308.902 115.664 307.66 117.084 306.405 118.492L306.854 118.911Z" fill="#EF1616"/>
<path d="M250.21 177.917L250.314 178.317L250.318 178.681L255.171 173.575C255.022 173.444 254.872 173.3 254.71 173.169L250.21 177.917Z" fill="#EF1616"/>
<path d="M292.345 133.471L292.794 133.889L297.513 128.919C297.363 128.788 297.201 128.656 297.052 128.525L292.345 133.471Z" fill="#EF1616"/>
<path d="M277.566 149.055L278.016 149.462L282.539 144.689C282.389 144.546 282.24 144.415 282.09 144.271L277.566 149.055Z" fill="#EF1616"/>
<path d="M310.96 114.149C312.092 112.78 313.187 111.398 314.245 109.981C314.095 109.85 313.945 109.706 313.783 109.575C312.726 110.992 311.631 112.386 310.499 113.755L310.96 114.149Z" fill="#EF1616"/>
<path d="M231.388 162.943C230.327 161.963 229.242 160.984 228.194 160.004L227.767 160.449C228.828 161.428 229.901 162.408 230.974 163.4L231.388 162.943Z" fill="#EF1616"/>
<path d="M231.839 163.357L231.425 163.814C231.525 163.909 231.625 163.993 231.724 164.088C231.896 163.964 232.067 163.851 232.251 163.739C232.114 163.607 231.977 163.488 231.839 163.357Z" fill="#EF1616"/>
<path d="M250.343 179.987L250.353 180.814C250.989 181.375 251.626 181.924 252.262 182.485L252.689 182.04C251.903 181.347 251.129 180.667 250.343 179.987Z" fill="#EF1616"/>
<path d="M237.114 156.709C236.055 155.79 234.995 154.859 233.935 153.94L233.508 154.385C234.568 155.304 235.64 156.235 236.7 157.154L237.114 156.709Z" fill="#00824D"/>
<path d="M243.11 161.986C242.976 162.134 242.83 162.283 242.696 162.443C244.717 164.221 246.725 166 248.733 167.79C248.879 167.642 249.013 167.494 249.16 167.345C247.151 165.542 245.131 163.764 243.11 161.986Z" fill="#00824D"/>
<path d="M237.58 157.131L237.166 157.588C238.85 159.056 240.546 160.535 242.229 162.015C242.363 161.867 242.51 161.719 242.644 161.558C240.96 160.066 239.276 158.599 237.58 157.131Z" fill="#00824D"/>
<path d="M255.167 173.584C256.177 174.504 257.188 175.423 258.198 176.343L258.625 175.898C257.615 174.978 256.604 174.058 255.581 173.139L255.167 173.584Z" fill="#00824D"/>
<path d="M249.2 168.206C251.046 169.854 252.88 171.501 254.714 173.149L255.14 172.704C253.307 171.056 251.473 169.409 249.639 167.761C249.48 167.91 249.334 168.058 249.2 168.206Z" fill="#00824D"/>
<path d="M237.577 157.121C237.428 156.989 237.266 156.858 237.116 156.714L236.702 157.172C236.852 157.303 237.014 157.435 237.163 157.578L237.577 157.121Z" fill="#00824D"/>
<path d="M243.107 161.974C242.957 161.842 242.807 161.698 242.646 161.567C242.512 161.716 242.365 161.864 242.231 162.025C242.381 162.156 242.531 162.3 242.693 162.431C242.826 162.27 242.973 162.122 243.107 161.974Z" fill="#00824D"/>
<path d="M249.162 167.344C249.016 167.492 248.882 167.641 248.735 167.789C248.885 167.921 249.035 168.064 249.184 168.196C249.331 168.047 249.464 167.899 249.611 167.75C249.474 167.619 249.312 167.487 249.162 167.344Z" fill="#00824D"/>
<path d="M255.13 172.714L254.704 173.16C254.853 173.291 255.003 173.435 255.165 173.566L255.591 173.12C255.442 172.989 255.28 172.858 255.13 172.714Z" fill="#00824D"/>
<path d="M248.933 155.581C248.799 155.729 248.653 155.878 248.519 156.038C250.675 157.802 252.831 159.577 254.963 161.378C255.109 161.229 255.243 161.081 255.389 160.933C253.258 159.132 251.101 157.344 248.933 155.581Z" fill="#EF1616"/>
<path d="M255.442 161.782C257.299 163.357 259.132 164.955 260.965 166.554L261.392 166.109C259.559 164.51 257.738 162.911 255.881 161.337C255.722 161.486 255.588 161.646 255.442 161.782Z" fill="#EF1616"/>
<path d="M242.744 150.598C241.673 149.753 240.601 148.895 239.53 148.062L239.104 148.507C240.187 149.34 241.246 150.198 242.33 151.043L242.744 150.598Z" fill="#EF1616"/>
<path d="M248.455 155.165C246.723 153.759 244.978 152.378 243.222 150.996L242.808 151.453C244.552 152.835 246.308 154.216 248.04 155.622C248.187 155.473 248.321 155.325 248.455 155.165Z" fill="#EF1616"/>
<path d="M261.431 166.977C262.491 167.896 263.551 168.803 264.598 169.734L265.025 169.289C263.977 168.357 262.905 167.451 261.845 166.532L261.431 166.977Z" fill="#EF1616"/>
<path d="M243.219 150.986C243.057 150.854 242.895 150.735 242.733 150.604L242.319 151.062C242.481 151.193 242.643 151.312 242.805 151.443L243.219 150.986Z" fill="#EF1616"/>
<path d="M248.93 155.568C248.768 155.437 248.618 155.305 248.456 155.174C248.322 155.322 248.176 155.471 248.042 155.631C248.204 155.763 248.354 155.894 248.516 156.025C248.649 155.877 248.796 155.716 248.93 155.568Z" fill="#EF1616"/>
<path d="M255.392 160.944C255.246 161.093 255.112 161.241 254.966 161.39C255.127 161.521 255.277 161.653 255.439 161.784C255.585 161.635 255.719 161.487 255.865 161.338C255.703 161.195 255.554 161.076 255.392 160.944Z" fill="#EF1616"/>
<path d="M260.968 166.565C261.118 166.696 261.28 166.827 261.429 166.971L261.856 166.526C261.706 166.394 261.545 166.263 261.395 166.119L260.968 166.565Z" fill="#EF1616"/>
<path d="M266.783 161.321C267.831 162.289 268.867 163.269 269.915 164.237L270.342 163.792C269.294 162.824 268.258 161.844 267.21 160.876L266.783 161.321Z" fill="#00824D"/>
<path d="M254.387 148.709C252.789 147.167 251.203 145.612 249.617 144.057C249.483 144.205 249.337 144.354 249.203 144.514C250.789 146.069 252.375 147.624 253.972 149.167C254.107 149.018 254.241 148.87 254.387 148.709Z" fill="#00824D"/>
<path d="M249.164 143.624C248.227 142.703 247.291 141.794 246.354 140.873L245.928 141.318C246.864 142.239 247.801 143.161 248.737 144.082C248.896 143.921 249.03 143.773 249.164 143.624Z" fill="#00824D"/>
<path d="M261.01 155.054C258.938 153.094 256.878 151.134 254.83 149.149C254.696 149.297 254.55 149.446 254.416 149.606C256.463 151.579 258.511 153.539 260.583 155.499C260.729 155.351 260.863 155.203 261.01 155.054Z" fill="#00824D"/>
<path d="M261.026 155.94C262.786 157.601 264.558 159.238 266.33 160.887L266.757 160.442C264.984 158.793 263.212 157.156 261.452 155.495C261.319 155.656 261.172 155.804 261.026 155.94Z" fill="#00824D"/>
<path d="M249.603 144.048C249.453 143.905 249.316 143.761 249.166 143.618C249.032 143.766 248.885 143.914 248.751 144.075C248.901 144.218 249.039 144.362 249.188 144.505C249.335 144.357 249.469 144.209 249.603 144.048Z" fill="#00824D"/>
<path d="M254.827 149.149C254.678 149.006 254.528 148.863 254.39 148.731C254.256 148.879 254.11 149.028 253.976 149.188C254.126 149.332 254.276 149.475 254.413 149.607C254.547 149.446 254.693 149.298 254.827 149.149Z" fill="#00824D"/>
<path d="M260.586 155.511C260.736 155.654 260.885 155.798 261.022 155.93C261.169 155.781 261.303 155.633 261.449 155.484C261.299 155.341 261.15 155.197 261.012 155.065C260.866 155.214 260.732 155.362 260.586 155.511Z" fill="#00824D"/>
<path d="M266.332 160.897C266.482 161.04 266.631 161.172 266.781 161.315L267.207 160.87C267.058 160.726 266.908 160.595 266.758 160.451L266.332 160.897Z" fill="#00824D"/>
<path d="M266.374 149.398L260.01 143.533C259.876 143.681 259.729 143.829 259.595 143.978L265.947 149.843C266.093 149.694 266.24 149.546 266.374 149.398Z" fill="#EF1616"/>
<path d="M259.567 143.092L254.676 138.576C254.542 138.724 254.395 138.873 254.261 139.021L259.152 143.537C259.286 143.389 259.433 143.241 259.567 143.092Z" fill="#EF1616"/>
<path d="M266.414 150.284L271.742 155.193L272.169 154.748L266.841 149.839C266.695 149.987 266.548 150.135 266.414 150.284Z" fill="#EF1616"/>
<path d="M254.222 138.155L251.403 135.563L250.988 135.995L253.808 138.6C253.942 138.452 254.088 138.303 254.222 138.155Z" fill="#EF1616"/>
<path d="M272.183 155.622L275.392 158.592L275.815 158.145L272.607 155.176L272.183 155.622Z" fill="#EF1616"/>
<path d="M254.673 138.567L254.224 138.149C254.09 138.297 253.944 138.446 253.809 138.594L254.259 139.012C254.393 138.876 254.54 138.728 254.673 138.567Z" fill="#EF1616"/>
<path d="M260.018 143.52L259.569 143.101C259.435 143.249 259.289 143.398 259.155 143.546L259.604 143.965C259.738 143.817 259.884 143.668 260.018 143.52Z" fill="#EF1616"/>
<path d="M265.962 149.854L266.411 150.273C266.558 150.124 266.692 149.976 266.825 149.828L266.377 149.409C266.243 149.557 266.096 149.706 265.962 149.854Z" fill="#EF1616"/>
<path d="M271.736 155.202L272.185 155.617L272.607 155.172L272.159 154.757L271.736 155.202Z" fill="#EF1616"/>
<path d="M277.596 149.923L280.902 152.896L281.329 152.451L278.023 149.478L277.596 149.923Z" fill="#00824D"/>
<path d="M271.701 143.742L265.239 137.928C265.105 138.076 264.958 138.224 264.824 138.372L271.286 144.187C271.42 144.039 271.554 143.891 271.701 143.742Z" fill="#00824D"/>
<path d="M271.729 144.628L277.131 149.5L277.558 149.055L272.144 144.184C272.022 144.332 271.875 144.468 271.729 144.628Z" fill="#00824D"/>
<path d="M264.771 137.499L259.819 133.045C259.685 133.193 259.539 133.342 259.405 133.49L264.357 137.944C264.491 137.796 264.637 137.648 264.771 137.499Z" fill="#00824D"/>
<path d="M259.366 132.624L256.572 130.116L256.145 130.561L258.939 133.081C259.086 132.921 259.232 132.772 259.366 132.624Z" fill="#00824D"/>
<path d="M259.828 133.035L259.38 132.629C259.246 132.777 259.099 132.926 258.965 133.074L259.414 133.481C259.548 133.332 259.682 133.184 259.828 133.035Z" fill="#00824D"/>
<path d="M265.235 137.914L264.786 137.508C264.652 137.656 264.506 137.805 264.372 137.953L264.821 138.36C264.955 138.211 265.089 138.063 265.235 137.914Z" fill="#00824D"/>
<path d="M271.277 144.2L271.726 144.606C271.86 144.457 272.007 144.309 272.141 144.161L271.691 143.755C271.557 143.903 271.423 144.051 271.277 144.2Z" fill="#00824D"/>
<path d="M277.146 149.498L277.595 149.917L278.021 149.471L277.572 149.052L277.146 149.498Z" fill="#00824D"/>
<path d="M282.535 144.711C283.633 145.739 284.744 146.754 285.842 147.782L286.269 147.337C285.171 146.309 284.06 145.282 282.95 144.254L282.535 144.711Z" fill="#EF1616"/>
<path d="M264.377 127.302C263.454 126.478 262.531 125.654 261.596 124.831L261.169 125.276C262.092 126.1 263.027 126.923 263.95 127.747C264.096 127.599 264.23 127.45 264.377 127.302Z" fill="#EF1616"/>
<path d="M276.65 138.397C274.516 136.45 272.383 134.503 270.237 132.569C270.103 132.717 269.956 132.866 269.81 133.014C271.956 134.948 274.089 136.895 276.223 138.842C276.369 138.705 276.516 138.545 276.65 138.397Z" fill="#EF1616"/>
<path d="M276.691 139.283C278.5 140.943 280.284 142.604 282.082 144.276L282.508 143.831C280.711 142.159 278.914 140.498 277.105 138.838C276.971 138.986 276.837 139.134 276.691 139.283Z" fill="#EF1616"/>
<path d="M269.782 132.14C268.135 130.66 266.489 129.191 264.83 127.723C264.684 127.871 264.55 128.019 264.403 128.168C266.05 129.636 267.709 131.105 269.355 132.586C269.501 132.437 269.635 132.289 269.782 132.14Z" fill="#EF1616"/>
<path d="M264.827 127.713C264.678 127.582 264.528 127.438 264.366 127.307C264.22 127.456 264.086 127.604 263.94 127.753C264.089 127.884 264.239 128.028 264.401 128.159C264.547 128.01 264.693 127.862 264.827 127.713Z" fill="#EF1616"/>
<path d="M270.233 132.556C270.084 132.425 269.934 132.281 269.785 132.149C269.651 132.298 269.504 132.446 269.358 132.595C269.508 132.727 269.657 132.87 269.807 133.002C269.953 132.853 270.099 132.704 270.233 132.556Z" fill="#EF1616"/>
<path d="M276.239 138.866C276.389 139.009 276.538 139.141 276.688 139.272C276.822 139.124 276.968 138.975 277.102 138.827C276.952 138.683 276.803 138.552 276.653 138.42C276.519 138.556 276.373 138.717 276.239 138.866Z" fill="#EF1616"/>
<path d="M282.084 144.286C282.234 144.43 282.384 144.561 282.533 144.705L282.96 144.259C282.81 144.116 282.661 143.984 282.511 143.841L282.084 144.286Z" fill="#EF1616"/>
<path d="M288.447 138.487C289.594 139.514 290.742 140.529 291.877 141.568L292.304 141.123C291.169 140.096 290.009 139.069 288.861 138.042L288.447 138.487Z" fill="#00824D"/>
<path d="M282.353 132.212C280.207 130.326 278.038 128.441 275.881 126.58C275.734 126.728 275.6 126.876 275.454 127.025C277.623 128.898 279.781 130.771 281.938 132.668C282.085 132.52 282.219 132.372 282.353 132.212Z" fill="#00824D"/>
<path d="M269.936 121.485C268.976 120.674 268.029 119.862 267.069 119.063L266.643 119.509C267.602 120.307 268.55 121.131 269.497 121.93C269.643 121.781 269.79 121.633 269.936 121.485Z" fill="#00824D"/>
<path d="M275.414 126.152C273.743 124.72 272.073 123.313 270.402 121.894C270.256 122.043 270.122 122.191 269.975 122.339C271.646 123.758 273.328 125.165 274.987 126.597C275.133 126.46 275.267 126.3 275.414 126.152Z" fill="#00824D"/>
<path d="M282.405 133.098C284.276 134.745 286.122 136.405 287.981 138.064L288.408 137.619C286.549 135.96 284.703 134.3 282.82 132.653C282.686 132.789 282.552 132.95 282.405 133.098Z" fill="#00824D"/>
<path d="M270.399 121.884C270.249 121.752 270.088 121.621 269.938 121.49C269.792 121.638 269.658 121.787 269.511 121.935C269.661 122.067 269.823 122.198 269.972 122.329C270.119 122.181 270.253 122.032 270.399 121.884Z" fill="#00824D"/>
<path d="M275.877 126.567C275.727 126.435 275.565 126.292 275.415 126.16C275.269 126.309 275.135 126.457 274.989 126.606C275.138 126.737 275.3 126.881 275.45 127.012C275.596 126.864 275.73 126.715 275.877 126.567Z" fill="#00824D"/>
<path d="M281.941 132.681C282.091 132.812 282.252 132.943 282.402 133.087C282.536 132.939 282.682 132.778 282.816 132.63C282.667 132.498 282.505 132.367 282.355 132.223C282.221 132.384 282.087 132.532 281.941 132.681Z" fill="#00824D"/>
<path d="M287.983 138.062C288.133 138.194 288.283 138.337 288.445 138.468L288.871 138.023C288.722 137.891 288.572 137.748 288.41 137.617L287.983 138.062Z" fill="#00824D"/>
<path d="M286.291 127.88L280.053 122.171C279.906 122.319 279.772 122.468 279.626 122.616L285.877 128.337C286.011 128.189 286.145 128.041 286.291 127.88Z" fill="#EF1616"/>
<path d="M279.597 121.743L274.819 117.371C274.673 117.519 274.526 117.668 274.392 117.804L279.171 122.188C279.305 122.04 279.451 121.892 279.597 121.743Z" fill="#EF1616"/>
<path d="M292.376 134.326L295.819 137.479L296.246 137.047L292.802 133.881L292.376 134.326Z" fill="#EF1616"/>
<path d="M274.366 116.938L271.546 114.358L271.119 114.803L273.939 117.383C274.073 117.235 274.219 117.087 274.366 116.938Z" fill="#EF1616"/>
<path d="M286.332 128.778L291.922 133.902L292.349 133.457L286.746 128.321C286.6 128.47 286.466 128.63 286.332 128.778Z" fill="#EF1616"/>
<path d="M274.816 117.362L274.367 116.943C274.221 117.092 274.074 117.24 273.94 117.377L274.389 117.795C274.523 117.647 274.67 117.51 274.816 117.362Z" fill="#EF1616"/>
<path d="M280.049 122.158L279.6 121.739C279.453 121.888 279.32 122.036 279.173 122.185L279.622 122.604C279.768 122.455 279.902 122.307 280.049 122.158Z" fill="#EF1616"/>
<path d="M285.88 128.349L286.329 128.767C286.463 128.619 286.609 128.458 286.743 128.31L286.294 127.891C286.148 128.052 286.014 128.2 285.88 128.349Z" fill="#EF1616"/>
<path d="M291.925 133.913L292.374 134.319L292.8 133.874L292.351 133.467L291.925 133.913Z" fill="#EF1616"/>
<path d="M297.509 128.929C298.718 129.955 299.927 130.98 301.124 132.019L301.551 131.574C300.354 130.535 299.132 129.51 297.923 128.484L297.509 128.929Z" fill="#00824D"/>
<path d="M278.856 112.391C277.834 111.544 276.825 110.698 275.803 109.863L275.376 110.308C276.386 111.143 277.395 111.989 278.405 112.824C278.563 112.675 278.71 112.527 278.856 112.391Z" fill="#00824D"/>
<path d="M291.134 123.484C293.103 125.153 295.073 126.823 297.043 128.505L297.47 128.06C295.5 126.378 293.53 124.696 291.548 123.027C291.402 123.188 291.268 123.336 291.134 123.484Z" fill="#00824D"/>
<path d="M284.232 116.865C282.599 115.506 280.966 114.146 279.334 112.799C279.188 112.948 279.041 113.084 278.895 113.232C280.54 114.591 282.172 115.938 283.805 117.31C283.951 117.161 284.098 117.013 284.232 116.865Z" fill="#00824D"/>
<path d="M291.068 122.61C288.949 120.821 286.843 119.044 284.711 117.268C284.565 117.417 284.431 117.565 284.284 117.713C286.416 119.489 288.535 121.278 290.654 123.067C290.788 122.918 290.922 122.77 291.068 122.61Z" fill="#00824D"/>
<path d="M279.331 112.778C279.169 112.646 279.019 112.515 278.858 112.384C278.711 112.532 278.565 112.669 278.419 112.817C278.581 112.948 278.73 113.08 278.892 113.211C279.038 113.075 279.185 112.926 279.331 112.778Z" fill="#00824D"/>
<path d="M284.708 117.267C284.546 117.136 284.396 117.005 284.234 116.873C284.088 117.022 283.954 117.17 283.808 117.319C283.97 117.45 284.119 117.582 284.281 117.713C284.427 117.564 284.561 117.416 284.708 117.267Z" fill="#00824D"/>
<path d="M290.657 123.079C290.806 123.21 290.968 123.341 291.13 123.473C291.264 123.324 291.398 123.164 291.544 123.015C291.395 122.884 291.233 122.752 291.071 122.621C290.925 122.782 290.791 122.93 290.657 123.079Z" fill="#00824D"/>
<path d="M297.033 128.516C297.183 128.647 297.345 128.779 297.494 128.91L297.921 128.465C297.771 128.333 297.609 128.202 297.46 128.07L297.033 128.516Z" fill="#00824D"/>
<path d="M284.067 107.272C282.995 106.366 281.911 105.472 280.839 104.578L280.412 105.023C281.484 105.905 282.556 106.811 283.628 107.705C283.774 107.557 283.921 107.409 284.067 107.272Z" fill="#EF1616"/>
<path d="M302.277 123.878C303.474 124.953 304.671 126.028 305.869 127.102L306.296 126.657C305.098 125.57 303.901 124.496 302.703 123.421C302.557 123.581 302.423 123.73 302.277 123.878Z" fill="#EF1616"/>
<path d="M295.808 117.292C293.788 115.526 291.755 113.785 289.711 112.043C289.564 112.192 289.43 112.34 289.284 112.488C291.329 114.229 293.373 115.983 295.394 117.749C295.528 117.601 295.674 117.452 295.808 117.292Z" fill="#EF1616"/>
<path d="M289.244 111.628C287.686 110.304 286.115 108.993 284.545 107.669C284.399 107.817 284.252 107.954 284.106 108.102C285.676 109.414 287.247 110.737 288.817 112.061C288.951 111.925 289.098 111.777 289.244 111.628Z" fill="#EF1616"/>
<path d="M295.861 118.178C297.856 119.92 299.84 121.687 301.811 123.454C301.945 123.306 302.091 123.157 302.225 123.009C300.242 121.242 298.258 119.476 296.263 117.721C296.141 117.869 296.007 118.03 295.861 118.178Z" fill="#EF1616"/>
<path d="M284.542 107.672C284.381 107.541 284.231 107.409 284.069 107.278C283.923 107.427 283.776 107.563 283.63 107.712C283.792 107.843 283.942 107.974 284.103 108.105C284.25 107.957 284.396 107.808 284.542 107.672Z" fill="#EF1616"/>
<path d="M289.708 112.043C289.558 111.911 289.396 111.78 289.247 111.649C289.1 111.797 288.966 111.946 288.82 112.094C288.97 112.226 289.131 112.357 289.281 112.488C289.415 112.34 289.561 112.191 289.708 112.043Z" fill="#EF1616"/>
<path d="M295.397 117.772C295.546 117.904 295.708 118.035 295.858 118.166C295.992 118.018 296.125 117.857 296.272 117.709C296.122 117.577 295.96 117.446 295.811 117.315C295.677 117.463 295.53 117.612 295.397 117.772Z" fill="#EF1616"/>
<path d="M301.826 123.465C301.975 123.596 302.137 123.74 302.287 123.871C302.421 123.723 302.567 123.574 302.701 123.426C302.552 123.294 302.39 123.151 302.24 123.02C302.106 123.168 301.96 123.317 301.826 123.465Z" fill="#EF1616"/>
<path d="M289.207 102.362L285.888 99.255L285.461 99.7001L288.755 102.783C288.914 102.635 289.061 102.499 289.207 102.362Z" fill="#00824D"/>
<path d="M305.993 118.936C306.127 118.788 306.261 118.627 306.408 118.479L300.504 112.958C300.37 113.107 300.236 113.267 300.102 113.415L305.993 118.936Z" fill="#00824D"/>
<path d="M299.647 112.986C299.782 112.838 299.915 112.678 300.049 112.53L294.371 107.212C294.224 107.361 294.09 107.509 293.944 107.657L299.647 112.986Z" fill="#00824D"/>
<path d="M306.447 119.372L310.079 122.766L310.506 122.321L306.862 118.915C306.715 119.063 306.581 119.224 306.447 119.372Z" fill="#00824D"/>
<path d="M293.916 106.775L289.66 102.795C289.514 102.931 289.368 103.08 289.209 103.216L293.489 107.22C293.635 107.071 293.782 106.923 293.916 106.775Z" fill="#00824D"/>
<path d="M289.658 102.787L289.209 102.368C289.062 102.504 288.916 102.653 288.757 102.79L289.206 103.208C289.365 103.06 289.511 102.923 289.658 102.787Z" fill="#00824D"/>
<path d="M294.367 107.201L293.918 106.782C293.772 106.931 293.638 107.079 293.492 107.228L293.941 107.646C294.087 107.486 294.221 107.349 294.367 107.201Z" fill="#00824D"/>
<path d="M300.1 113.416C300.234 113.268 300.368 113.107 300.502 112.959L300.052 112.541C299.918 112.689 299.784 112.849 299.65 112.998L300.1 113.416Z" fill="#00824D"/>
<path d="M305.996 118.947L306.445 119.365C306.579 119.217 306.713 119.056 306.859 118.908L306.411 118.489C306.264 118.638 306.13 118.798 305.996 118.947Z" fill="#00824D"/>
<path d="M293.312 98.502L289.658 95.279L289.231 95.724L292.848 98.9234C293.007 98.7747 293.166 98.6504 293.312 98.502Z" fill="#EF1616"/>
<path d="M314.557 118.145L314.983 117.7L310.968 114.155C310.834 114.315 310.712 114.475 310.578 114.624L314.557 118.145Z" fill="#EF1616"/>
<path d="M310.112 114.199C310.246 114.038 310.367 113.878 310.501 113.73L304.489 108.419C304.355 108.567 304.222 108.727 304.087 108.875L310.112 114.199Z" fill="#EF1616"/>
<path d="M297.516 103.044C297.663 102.896 297.797 102.748 297.943 102.599L293.778 98.9227C293.631 99.059 293.473 99.1955 293.314 99.3319L297.516 103.044Z" fill="#EF1616"/>
<path d="M303.621 108.447C303.755 108.299 303.889 108.138 304.023 107.99L298.41 103.037C298.264 103.186 298.13 103.334 297.983 103.482L303.621 108.447Z" fill="#EF1616"/>
<path d="M293.775 98.9148L293.314 98.5085C293.168 98.6449 293.009 98.7815 292.85 98.9181L293.311 99.3244C293.47 99.1878 293.629 99.0633 293.775 98.9148Z" fill="#EF1616"/>
<path d="M297.98 103.459C298.127 103.31 298.26 103.162 298.407 103.013L297.946 102.607C297.799 102.756 297.665 102.904 297.519 103.053L297.98 103.459Z" fill="#EF1616"/>
<path d="M304.072 108.864C304.206 108.716 304.34 108.555 304.474 108.407L304.013 108C303.879 108.149 303.745 108.309 303.611 108.458L304.072 108.864Z" fill="#EF1616"/>
<path d="M310.576 114.616C310.71 114.456 310.831 114.296 310.966 114.147L310.504 113.741C310.37 113.902 310.248 114.062 310.114 114.21L310.576 114.616Z" fill="#EF1616"/>
<path d="M302.107 99.2154C303.329 100.278 304.551 101.352 305.773 102.414C305.646 102.076 305.493 101.665 305.302 101.194C304.379 100.382 303.457 99.5821 302.534 98.7703C302.4 98.9307 302.253 99.0791 302.107 99.2154Z" fill="#00824D"/>
<path d="M307.851 103.619L306.874 103.392C307.099 103.583 307.323 103.774 307.535 103.978C307.645 103.866 307.754 103.743 307.851 103.619Z" fill="#00824D"/>
<path d="M301.642 98.8092C301.789 98.6608 301.923 98.5126 302.069 98.3642C301.221 97.6245 300.373 96.8968 299.513 96.1694C299.23 96.1863 298.946 96.2154 298.663 96.2566C299.672 97.1032 300.657 97.9501 301.642 98.8092Z" fill="#00824D"/>
<path d="M314.241 109.979C315.701 111.293 317.16 112.619 318.608 113.945L319.034 113.5C317.562 112.15 316.078 110.812 314.593 109.474C314.484 109.647 314.363 109.819 314.241 109.979Z" fill="#00824D"/>
<path d="M307.998 104.391C309.021 105.286 310.019 106.194 311.042 107.102L311.032 106.274C310.159 105.498 309.285 104.71 308.412 103.934C308.278 104.082 308.132 104.23 307.998 104.391Z" fill="#00824D"/>
<path d="M313.777 109.562C313.899 109.402 314.02 109.229 314.142 109.069C313.742 108.711 313.343 108.354 312.932 107.984L312.031 107.999C312.617 108.524 313.191 109.037 313.777 109.562Z" fill="#00824D"/>
<path d="M302.531 98.7758C302.382 98.6443 302.22 98.5009 302.07 98.3695C301.924 98.5181 301.79 98.6664 301.644 98.815C301.793 98.9465 301.955 99.0899 302.105 99.2213C302.251 99.0728 302.397 98.9242 302.531 98.7758Z" fill="#00824D"/>
<path d="M307.996 104.386C308.13 104.237 308.264 104.077 308.398 103.928C308.311 103.845 308.224 103.773 308.136 103.689L307.852 103.621C307.742 103.745 307.645 103.856 307.535 103.979C307.697 104.123 307.847 104.254 307.996 104.386Z" fill="#00824D"/>
<path d="M314.604 109.479C314.454 109.347 314.304 109.204 314.142 109.073C314.02 109.233 313.899 109.405 313.777 109.565C313.927 109.697 314.077 109.84 314.239 109.971C314.361 109.811 314.482 109.639 314.604 109.479Z" fill="#00824D"/>
</g>
<path d="M150.256 101.222C151.904 103.299 154.359 104.501 157.012 104.501C161 104.501 164.444 101.783 165.383 97.9101L174.726 58.9881C175.353 56.4174 174.759 53.7315 173.111 51.6552C171.464 49.5789 169.008 48.376 166.355 48.376C162.368 48.376 158.924 51.0949 157.984 54.9673L148.641 93.8729C148.015 96.46 148.608 99.1295 150.256 101.222Z" fill="#232323"/>
<path d="M168.612 93.8893C167.986 96.4599 168.579 99.1459 170.227 101.222C171.875 103.298 174.33 104.501 176.983 104.501C180.971 104.501 184.415 101.782 185.354 97.91L190.133 78.5149C190.759 75.9278 190.166 73.2583 188.518 71.182C186.87 69.1058 184.415 67.9028 181.762 67.9028C177.774 67.9028 174.33 70.6218 173.391 74.4942L168.612 93.8893Z" fill="#232323"/>
<path d="M186.096 67.046C190.957 67.046 194.912 63.0911 194.912 58.23C194.912 53.3689 190.957 49.4141 186.096 49.4141C181.235 49.4141 177.28 53.3689 177.28 58.23C177.28 63.0911 181.235 67.046 186.096 67.046Z" fill="#232323"/>
<path d="M274.602 114.833C270.119 114.108 266.099 114.553 262.77 116.119C262.655 113.976 262.078 111.752 260.628 109.923C260.447 109.692 260.249 109.478 260.051 109.28C260.48 108.374 260.859 107.204 260.99 106.792C261.007 106.742 261.023 106.676 261.04 106.627C261.056 106.561 261.073 106.495 261.089 106.413L267.911 74.906C268.537 72.3189 267.944 69.6494 266.296 67.5731C264.649 65.4969 262.193 64.2939 259.54 64.2939V65.9418L259.507 64.2939C258.453 64.3434 255.602 64.2939 253.74 66.1066C253.443 66.3867 252.899 66.3537 252.52 66.189C250.214 65.2497 247.758 64.7718 245.237 64.7718C239.206 64.7718 233.719 66.9799 230.143 70.8524C228.742 72.3848 227.688 74.1316 226.979 76.0595C225.776 74.9555 224.244 73.9833 222.266 73.2582C220.585 72.632 217.965 72.2036 215.889 72.2036C213.45 72.2036 211.67 72.6815 209.792 73.5713C208.589 70.2591 205.392 67.9027 201.718 67.9027C197.73 67.9027 194.286 70.6217 193.347 74.4941L188.568 93.8892C187.744 97.3002 189.062 100.827 191.913 102.886C194.928 105.062 198.834 105.045 202.344 102.853C204.255 101.651 204.914 99.5907 205.26 98.0582C205.277 98.0088 205.293 97.9593 205.31 97.9099L207.089 90.8077C207.6 89.1599 208.325 88.0888 209.116 87.9075C210.484 87.5779 211.522 87.7262 212.214 88.3524C213.17 89.2093 213.582 91.0219 213.302 93.0652C213.285 93.1312 213.285 93.1971 213.285 93.263C213.269 93.4443 213.219 94.0869 213.17 94.7625C213.071 95.9819 213.038 96.4104 213.022 96.6246C212.956 98.9151 213.862 101.189 215.477 102.853C217.108 104.518 219.284 105.441 221.623 105.441C225.611 105.441 229.055 102.722 229.994 98.7997L230.802 94.9767C234.081 98.5361 238.761 100.761 243.985 100.827C243.688 101.98 243.358 102.26 243.26 102.326C242.881 102.573 241.694 102.293 240.541 102.013L239.717 101.815C239.255 101.716 238.827 101.585 238.3 101.387C237.212 100.942 236.091 100.711 234.954 100.711C230.159 100.711 226.254 104.6 226.056 109.445C224.524 109.099 222.942 108.901 221.294 108.901C213.5 108.901 206.694 113.087 203.135 119.249C199.806 111.653 192.226 106.33 183.41 106.33C178.648 106.33 174.133 107.879 170.326 110.796C166.47 113.762 163.735 117.931 162.548 122.644C162.153 121.441 161.659 120.271 161.065 119.167C161.049 119.134 161.049 119.101 161.032 119.068C160.884 118.788 160.719 118.557 160.571 118.277C160.489 118.162 160.423 118.03 160.357 117.915C156.715 111.785 150.948 108.192 143.17 107.286C137.007 106.578 127.894 108.835 124.038 113.416L123.132 114.668C122.539 115.591 121.913 116.745 121.748 118.178C121.534 120.106 122.028 122.133 123.099 123.765C123.758 124.753 124.599 125.511 125.538 126.039C124.335 126.83 123.28 127.752 122.358 128.774C122.374 128.461 122.407 128.164 122.407 127.851C122.407 115.97 112.751 106.314 100.87 106.314C96.1074 106.314 91.5923 107.863 87.7858 110.78C83.6992 113.927 80.8484 118.409 79.7773 123.484L73.2189 150.179C72.6257 152.668 73.1859 155.238 74.7679 157.249C76.3498 159.259 78.7227 160.413 81.2768 160.413C85.1163 160.413 88.4285 157.809 89.3348 154.085L91.0815 147.114C94.097 148.647 97.4092 149.454 100.804 149.454C108.483 149.454 115.222 145.401 119.029 139.337C120.232 146.389 127.713 151.844 136.776 151.844C140.171 151.844 143.433 151.086 146.301 149.636C147.734 151.036 149.679 151.844 151.706 151.844C153.172 151.844 154.54 151.432 155.71 150.707C155.298 153.03 155.875 155.403 157.341 157.282C158.923 159.292 161.296 160.445 163.85 160.445C167.69 160.445 171.002 157.842 171.908 154.118L173.655 147.147C176.67 148.68 179.983 149.487 183.394 149.487C191.517 149.487 198.587 144.972 202.261 138.315C203.184 140.408 204.436 142.336 206.018 144C209.907 148.054 215.428 150.295 221.558 150.311C221.574 150.311 221.607 150.311 221.623 150.311C226.666 150.311 231.197 148.96 234.839 146.455C235.383 149.29 236.965 151.877 239.42 153.64C241.414 155.074 243.721 155.799 246.094 155.799C248.5 155.799 251.004 155.057 253.377 153.574C255.931 151.976 256.821 149.174 257.25 147.18C257.266 147.114 257.299 147.032 257.316 146.983L258.898 140.671C258.914 140.589 258.931 140.523 258.947 140.441C259.623 135.118 262.325 134.311 264.303 134.162C265.868 134.064 268.966 134.953 271.009 135.563C272.789 136.09 273.596 136.321 274.272 136.321C280.188 136.321 284.999 131.509 284.999 125.594C284.933 119.711 280.402 115.031 274.602 114.833ZM138.144 122.875L137.979 122.858C137.831 122.842 137.682 122.842 137.534 122.842C137.649 122.792 137.748 122.726 137.864 122.677C139.083 122.15 141.126 121.886 143.137 122.726C144.208 123.171 145.131 123.896 145.905 124.836C143.582 123.732 140.945 123.039 138.144 122.875ZM240.079 120.551C239.98 120.37 239.898 120.172 239.799 119.991C239.931 119.991 240.079 120.007 240.211 120.007L240.079 120.551Z" fill="#232323"/>
<path d="M91.5103 104.468C91.5926 104.468 91.6256 104.468 91.6421 104.468H92.1694C96.0583 104.468 99.3869 102.145 100.886 98.8164C104.561 102.343 109.389 104.501 114.695 104.501C120.1 104.501 125.011 102.26 128.718 98.6022C129.032 99.5414 129.493 100.431 130.136 101.222C131.783 103.299 134.239 104.501 136.892 104.501C140.88 104.501 144.324 101.783 145.263 97.9101L154.606 58.9881C155.232 56.4174 154.639 53.7315 152.991 51.6552C151.343 49.5789 148.888 48.376 146.235 48.376C142.247 48.376 138.803 51.0949 137.864 54.9673L133.629 72.6322C130.333 64.9038 123.099 59.5154 114.695 59.5154C108.17 59.5154 102.353 62.7616 98.53 67.837C98.3323 57.9829 90.2744 50.0403 80.3708 50.0403C80.0578 50.0403 79.7611 50.0568 79.4645 50.0733H79.4151C79.2503 50.0568 79.0855 50.0403 78.9207 50.0403H69.7093H60.4979C59.4927 50.0403 58.4875 50.238 57.4494 50.6335C57.3011 50.6994 57.1693 50.7489 57.1033 50.7818C54.0054 51.9847 51.7314 54.5719 50.9898 57.6698L42.8166 92.1426C42.1409 94.9934 42.8001 97.9595 44.6457 100.299C46.5901 102.771 49.5562 104.172 52.7695 104.172C57.5483 104.172 61.6349 101.041 62.706 96.5424L64.1726 90.363C67.0233 95.8338 72.0328 99.9369 78.9867 102.293C85.0507 104.37 90.5545 104.468 91.5103 104.468ZM93.9491 80.2617C93.8996 80.8384 93.8667 81.4152 93.8667 82.0084C93.8667 83.2113 93.982 84.3978 94.1468 85.5513C93.5206 85.4194 92.8615 85.3535 92.1859 85.3535H91.6915C90.8346 85.337 89.3516 85.1723 87.7697 84.7933C90.1425 83.7222 92.2353 82.1732 93.9491 80.2617ZM69.4621 68.3972C69.5116 68.0677 69.561 67.7216 69.5775 67.3921L69.8247 66.3045H80.5851C80.8158 66.3045 81.2607 66.4363 81.4419 66.6505C81.4749 66.7 81.5573 66.7988 81.5079 67.0955C81.3925 67.7546 81.1124 68.216 80.1237 68.3643C79.8435 68.3643 79.0691 68.3972 78.9207 68.3972H69.4621Z" fill="#232323"/>
<path d="M132.311 97.5969C127.812 97.5969 124.5 93.3949 125.555 89.0116L134.898 50.1061C135.64 46.9752 138.425 44.7671 141.638 44.7671C146.136 44.7671 149.449 48.9691 148.394 53.3523L139.051 92.2579C138.326 95.3888 135.524 97.5969 132.311 97.5969Z" fill="#F5F5F5"/>
<path d="M132.311 99.2446C129.658 99.2446 127.202 98.0582 125.555 95.9654C123.907 93.8891 123.33 91.2031 123.94 88.6325L133.283 49.7105C134.222 45.8216 137.65 43.1191 141.654 43.1191C144.307 43.1191 146.762 44.3056 148.41 46.3983C150.058 48.4746 150.635 51.1606 150.025 53.7312L140.682 92.6532C139.742 96.5257 136.298 99.2446 132.311 99.2446ZM141.637 46.4148C139.166 46.4148 137.056 48.0956 136.48 50.485L127.136 89.3905C126.757 90.9889 127.12 92.6368 128.125 93.9221C129.13 95.2074 130.663 95.9489 132.294 95.9489C134.766 95.9489 136.875 94.2681 137.452 91.8788L146.795 52.9568C147.174 51.3583 146.812 49.7105 145.806 48.4252C144.801 47.1564 143.285 46.4148 141.637 46.4148Z" fill="#232323"/>
<path d="M152.398 97.5969C147.899 97.5969 144.587 93.3949 145.642 89.0116L154.985 50.1061C155.727 46.9752 158.528 44.7671 161.741 44.7671C166.24 44.7671 169.552 48.9691 168.497 53.3523L159.154 92.2579C158.413 95.3888 155.628 97.5969 152.398 97.5969Z" fill="#F5F5F5"/>
<path d="M152.397 99.2446C149.744 99.2446 147.289 98.0582 145.641 95.9654C143.993 93.8891 143.416 91.2031 144.026 88.6325L153.386 49.7105C154.325 45.8216 157.753 43.1191 161.757 43.1191C164.41 43.1191 166.865 44.3056 168.513 46.3983C170.161 48.4746 170.738 51.1606 170.128 53.7312L160.785 92.6532C159.845 96.5257 156.401 99.2446 152.397 99.2446ZM161.74 46.4148C159.269 46.4148 157.159 48.0956 156.583 50.485L147.239 89.3905C146.86 90.9724 147.223 92.6368 148.228 93.9221C149.233 95.2074 150.766 95.9489 152.397 95.9489C154.869 95.9489 156.978 94.2681 157.555 91.8788L166.898 52.9568C167.277 51.3583 166.915 49.7105 165.909 48.4252C164.904 47.1564 163.388 46.4148 161.74 46.4148Z" fill="#232323"/>
<path d="M172.37 97.5968C167.872 97.5968 164.559 93.3948 165.614 89.0116L170.393 69.6329C171.151 66.5021 173.936 64.2939 177.149 64.2939C181.648 64.2939 184.96 68.4959 183.905 72.8792L179.126 92.2578C178.385 95.3887 175.583 97.5968 172.37 97.5968Z" fill="#F5F5F5"/>
<path d="M181.499 60.1414C185.458 60.1414 188.667 56.9321 188.667 52.9733C188.667 49.0144 185.458 45.8052 181.499 45.8052C177.54 45.8052 174.331 49.0144 174.331 52.9733C174.331 56.9321 177.54 60.1414 181.499 60.1414Z" fill="#F5F5F5"/>
<path d="M177.149 62.6462C173.161 62.6462 169.717 65.3652 168.778 69.2376L163.999 88.6327C163.373 91.2033 163.966 93.8893 165.614 95.9656C167.262 98.0419 169.717 99.2448 172.37 99.2448C176.358 99.2448 179.802 96.5258 180.741 92.6534L185.52 73.2583C186.146 70.6712 185.553 68.0017 183.905 65.9254C182.257 63.8492 179.802 62.6462 177.149 62.6462ZM182.323 72.4838L177.544 91.8789C176.967 94.2683 174.842 95.9491 172.386 95.9491C170.755 95.9491 169.223 95.2076 168.217 93.9223C167.212 92.6369 166.85 90.9891 167.229 89.4072L172.007 70.0121C172.584 67.6227 174.71 65.9419 177.165 65.9419C178.797 65.9419 180.329 66.6834 181.334 67.9688C182.339 69.2541 182.702 70.9019 182.323 72.4838Z" fill="#232323"/>
<path d="M181.499 44.1575C176.638 44.1575 172.683 48.1123 172.683 52.9734C172.683 57.8345 176.638 61.7894 181.499 61.7894C186.36 61.7894 190.315 57.8345 190.315 52.9734C190.315 48.1123 186.36 44.1575 181.499 44.1575ZM181.499 58.4937C178.451 58.4937 175.979 56.0219 175.979 52.9734C175.979 49.9249 178.451 47.4532 181.499 47.4532C184.548 47.4532 187.019 49.9249 187.019 52.9734C187.019 56.0219 184.548 58.4937 181.499 58.4937Z" fill="#232323"/>
<path d="M178.763 102.738C174.215 102.738 170.03 104.287 166.685 106.858C162.994 109.692 160.308 113.779 159.319 118.508L159.286 118.64L152.793 145.302C151.788 149.471 154.952 153.492 159.253 153.492C162.318 153.492 164.987 151.382 165.712 148.4L167.987 139.304C171.101 141.314 174.809 142.5 178.78 142.5C189.771 142.5 198.669 133.602 198.669 122.611C198.653 111.636 189.754 102.738 178.763 102.738Z" fill="#F5F5F5"/>
<path d="M178.764 101.09C174.001 101.09 169.486 102.639 165.68 105.556C161.593 108.703 158.759 113.185 157.671 118.261L151.179 144.939C150.586 147.428 151.146 149.998 152.728 152.009C154.31 154.019 156.683 155.172 159.237 155.172C163.076 155.172 166.388 152.569 167.295 148.845L169.041 141.874C172.057 143.407 175.369 144.214 178.78 144.214C190.661 144.214 200.317 134.558 200.317 122.677C200.317 110.796 190.645 101.09 178.764 101.09ZM178.764 140.869C175.237 140.869 171.826 139.848 168.86 137.936H168.844L168.827 137.92C167.822 137.31 166.158 135.926 166.158 133.586C166.158 130.686 168.399 128.329 171.167 128.263L172.947 128.543C173.392 128.692 174.71 129.071 176.325 129.219C177.066 129.483 177.857 129.647 178.681 129.647C182.702 129.647 185.981 126.368 185.981 122.347C185.981 118.327 182.702 115.048 178.681 115.048C174.661 115.048 171.381 118.327 171.381 122.347C171.381 123.303 171.579 124.21 171.909 125.05L171.53 124.984C171.447 124.968 171.365 124.968 171.283 124.968C166.636 124.968 162.846 128.84 162.846 133.586C162.846 136.09 164.016 138.381 166.092 140.029L164.098 148.037C163.554 150.295 161.56 151.86 159.253 151.86C157.721 151.86 156.287 151.168 155.331 149.965C154.376 148.762 154.046 147.213 154.392 145.714L160.885 119.035C160.885 119.019 160.918 118.871 160.934 118.854C161.824 114.636 164.23 110.829 167.69 108.176C170.904 105.704 174.743 104.402 178.764 104.402C188.816 104.402 197.005 112.592 197.005 122.644C197.005 132.696 188.832 140.869 178.764 140.869Z" fill="#232323"/>
<path d="M146.829 114.916L145.807 125.89L149.762 126.681L146.829 114.916Z" fill="#606060"/>
<path d="M96.1902 102.738C91.6421 102.738 87.4566 104.287 84.1115 106.858C80.4203 109.692 77.7343 113.779 76.7456 118.508L76.7127 118.64L70.2202 145.302C69.215 149.471 72.3788 153.492 76.6797 153.492C79.7447 153.492 82.4142 151.382 83.1393 148.4L85.4133 139.304C88.5277 141.314 92.2353 142.5 96.2066 142.5C107.198 142.5 116.096 133.602 116.096 122.611C116.08 111.636 107.181 102.738 96.1902 102.738Z" fill="#F5F5F5"/>
<path d="M96.19 101.09C91.4277 101.09 86.9126 102.639 83.1061 105.556C79.0195 108.703 76.1687 113.185 75.0976 118.261L68.6051 144.939C68.0119 147.428 68.5722 149.998 70.1541 152.009C71.736 154.019 74.1089 155.172 76.6631 155.172C80.5025 155.172 83.8147 152.569 84.721 148.845L86.4677 141.874C89.4833 143.407 92.7954 144.214 96.19 144.214C108.071 144.214 117.727 134.558 117.727 122.677C117.727 110.796 108.071 101.09 96.19 101.09ZM96.19 140.869C92.6801 140.869 89.2526 139.848 86.2865 137.936H86.27L86.2535 137.92C85.2483 137.31 83.584 135.926 83.584 133.586C83.584 130.686 85.8251 128.329 88.5934 128.263L90.3731 128.543C90.818 128.692 92.1363 129.071 93.7512 129.219C94.4927 129.483 95.2837 129.647 96.1076 129.647C100.128 129.647 103.408 126.368 103.408 122.347C103.408 118.327 100.128 115.048 96.1076 115.048C92.0869 115.048 88.8077 118.327 88.8077 122.347C88.8077 123.303 89.0054 124.21 89.335 125.05L88.956 124.984C88.8736 124.968 88.7912 124.968 88.7088 124.968C84.0619 124.968 80.2718 128.84 80.2718 133.586C80.2718 136.09 81.4418 138.381 83.5181 140.029L81.5242 148.037C80.9804 150.295 78.9865 151.86 76.6796 151.86C75.1471 151.86 73.7134 151.168 72.7577 149.965C71.8019 148.762 71.4724 147.213 71.8184 145.714L78.3109 119.035C78.3109 119.019 78.3439 118.871 78.3603 118.854C79.2502 114.636 81.656 110.829 85.1165 108.176C88.3298 105.704 92.1693 104.402 96.19 104.402C106.242 104.402 114.432 112.592 114.432 122.644C114.432 132.696 106.258 140.869 96.19 140.869Z" fill="#232323"/>
<path d="M110.114 97.5969C120.717 97.5969 129.312 88.2642 129.312 76.7517C129.312 65.2392 120.717 55.9065 110.114 55.9065C99.5119 55.9065 90.917 65.2392 90.917 76.7517C90.917 88.2642 99.5119 97.5969 110.114 97.5969Z" fill="#F5F5F5"/>
<path d="M63.1507 56.4502C63.1507 56.4502 64.3536 63.1075 62.0137 66.4361L63.1507 56.4502Z" fill="#606060"/>
<path d="M225.035 79.141C223.98 75.1862 222.382 71.4785 217.076 69.5341C215.511 68.9573 213.039 68.5948 211.259 68.5948C208.244 68.5948 206.398 69.4187 204.009 70.8029C203.778 67.2601 200.845 64.2939 197.071 64.2939C193.858 64.2939 191.057 66.5021 190.315 69.6329L185.536 89.0116C184.152 94.779 190.348 100.25 196.841 96.1961C198.142 95.3722 198.703 93.8892 199.032 92.3896C199.049 92.3402 199.065 92.3072 199.065 92.2743L200.861 85.1062C201.389 83.3595 202.377 81.4974 204.075 81.0854C209.068 79.8496 210.864 83.9527 210.287 88.0723C210.303 88.1217 210.007 91.368 210.023 91.4504C209.924 95.2569 212.973 98.569 216.977 98.569C220.19 98.569 222.992 96.3609 223.733 93.23L225.431 85.271C225.81 82.3708 225.282 80.0308 225.035 79.141Z" fill="#F5F5F5"/>
<path d="M226.633 78.7292C225.496 74.4613 223.634 70.1934 217.652 68.0017C215.971 67.3755 213.351 66.9471 211.275 66.9471C208.836 66.9471 207.056 67.425 205.178 68.3148C203.975 65.0027 200.778 62.6462 197.103 62.6462C193.116 62.6462 189.672 65.3652 188.732 69.2376L183.954 88.6327C183.13 92.0437 184.448 95.5701 187.299 97.6299C190.314 99.8051 194.22 99.7886 197.73 97.5969C199.641 96.394 200.3 94.3342 200.646 92.8017C200.663 92.7523 200.679 92.7029 200.696 92.6534L202.475 85.5512C202.986 83.9034 203.711 82.8323 204.502 82.651C205.87 82.3215 206.908 82.4698 207.6 83.0959C208.556 83.9528 208.968 85.7654 208.688 87.8088C208.671 87.8747 208.671 87.9406 208.671 88.0065C208.655 88.1878 208.605 88.8304 208.556 89.506C208.457 90.7254 208.424 91.1539 208.408 91.3681C208.342 93.6586 209.248 95.9326 210.863 97.5969C212.494 99.2613 214.669 100.184 217.009 100.184C220.997 100.184 224.441 97.4651 225.38 93.5433L227.094 85.4524C227.457 82.4862 226.962 79.965 226.633 78.7292ZM223.815 84.9086L222.134 92.8347C221.557 95.2241 219.432 96.9049 216.976 96.9049C215.543 96.9049 214.191 96.3446 213.186 95.3064C212.181 94.2848 211.637 92.8841 211.67 91.467V91.4505C211.687 91.2528 211.736 90.5112 211.802 89.7862C211.868 88.9293 211.901 88.4844 211.917 88.2207C212.346 85.0734 211.538 82.2555 209.759 80.6571C208.688 79.6849 206.76 78.6962 203.662 79.4707C201.668 79.965 200.152 81.7447 199.246 84.6943L197.482 91.7471C197.449 91.8295 197.416 91.9613 197.4 92.0437C197.087 93.4938 196.626 94.3672 195.95 94.7956C193.577 96.2787 191.105 96.3446 189.194 94.9604C187.431 93.6916 186.623 91.5164 187.117 89.4072L191.896 70.0121C192.473 67.6227 194.599 65.9419 197.054 65.9419C199.526 65.9419 201.635 67.6722 202.195 70.0121L198.043 72.7475C197.285 73.2419 197.07 74.2635 197.565 75.0215C197.878 75.4994 198.405 75.7631 198.949 75.7631C199.262 75.7631 199.575 75.6807 199.855 75.4829L204.832 72.2037C207.139 70.869 208.688 70.2263 211.242 70.2263C212.906 70.2263 215.164 70.5888 216.482 71.0667C220.816 72.6486 222.348 75.4829 223.419 79.5366C223.716 80.5747 224.112 82.6181 223.815 84.9086Z" fill="#232323"/>
<path d="M254.926 60.7017C254.003 60.7017 251.68 60.6852 250.279 62.0529C249.488 62.8109 248.302 62.8933 247.28 62.4813C245.237 61.6409 242.996 61.1795 240.623 61.1795C231.444 61.1795 222.052 66.914 222.991 78.5643C223.666 87.0342 230.423 93.9716 239.601 93.9716C240.244 93.9716 240.87 93.9221 241.496 93.8562L241.018 95.6688C240.062 99.8544 238.036 98.9645 234.707 98.2065C234.18 98.0912 233.669 97.9429 233.191 97.7616C233.125 97.7451 233.076 97.7122 233.01 97.6957C232.169 97.3496 231.263 97.1519 230.291 97.1519C226.287 97.1519 223.024 100.481 223.024 104.584C223.024 107.55 224.738 110.087 227.193 111.29C227.473 111.406 227.753 111.521 228.05 111.62C230.538 112.592 233.323 113.152 236.256 113.152C244.034 113.152 250.708 109.346 253.657 103.875C254.119 103.183 254.827 101.008 254.827 101.008C254.827 100.991 254.844 100.975 254.844 100.942L261.699 69.2704C262.753 64.9037 259.425 60.7017 254.926 60.7017Z" fill="#F5F5F5"/>
<path d="M261.683 62.3166C260.035 60.2403 257.58 59.0374 254.926 59.0374V60.6852L254.894 59.0374C253.839 59.0868 250.988 59.0374 249.126 60.85C248.829 61.1301 248.286 61.0972 247.907 60.9324C245.6 59.9931 243.144 59.5152 240.623 59.5152C234.592 59.5152 229.105 61.7233 225.529 65.5958C222.382 69.0068 220.932 73.5384 221.343 78.6961C222.101 88.2536 229.813 95.4711 239.321 95.6029C239.025 96.7564 238.695 97.0366 238.596 97.1025C238.217 97.3497 237.031 97.0695 235.877 96.7894L235.054 96.5917C234.592 96.4928 234.164 96.361 233.636 96.1632C232.549 95.7183 231.428 95.4876 230.291 95.4876C225.381 95.4876 221.376 99.5578 221.376 104.567C221.376 108.044 223.37 111.257 226.518 112.773C226.732 112.872 226.963 112.955 227.177 113.037L227.424 113.136C230.225 114.24 233.191 114.784 236.24 114.784C244.331 114.784 251.713 110.829 255.058 104.716C255.602 103.859 256.195 102.062 256.377 101.535C256.393 101.486 256.41 101.42 256.426 101.37C256.442 101.304 256.459 101.239 256.475 101.156L263.298 69.6495C263.924 67.0788 263.33 64.4093 261.683 62.3166ZM260.084 68.9244L253.229 100.563C252.9 101.585 252.471 102.672 252.29 102.936C252.257 102.985 252.224 103.035 252.208 103.084C249.439 108.192 243.177 111.488 236.256 111.488C233.62 111.488 231.066 111.01 228.643 110.071L228.347 109.956C228.182 109.89 228.017 109.824 227.902 109.791C225.908 108.819 224.672 106.825 224.672 104.567C224.672 101.37 227.193 98.7833 230.291 98.7833C231 98.7833 231.692 98.9316 232.433 99.2282C232.45 99.2282 232.598 99.2941 232.615 99.2941C233.126 99.4754 233.686 99.6402 234.328 99.7885L235.119 99.9697C237.014 100.415 238.794 100.843 240.343 99.8873C241.447 99.1952 242.172 97.9758 242.601 96.0643L243.079 94.2517C243.111 94.1528 243.111 94.054 243.128 93.9386L244.232 89.4565C244.446 88.5667 243.902 87.6768 243.029 87.4626C242.139 87.2319 241.249 87.7757 241.035 88.6655L240.145 92.2578C239.964 92.2578 239.783 92.2908 239.585 92.2908C231.56 92.2908 225.265 86.4574 224.623 78.416C224.277 74.1481 225.397 70.5887 227.951 67.8203C230.852 64.673 235.581 62.8109 240.623 62.8109C242.716 62.8109 244.743 63.2064 246.654 63.9809C246.819 64.0468 246.984 64.0962 247.149 64.1457C247.182 64.1786 247.215 64.2116 247.264 64.2445L250.972 66.2879C251.219 66.4197 251.499 66.4856 251.763 66.4856C252.339 66.4856 252.9 66.1725 253.213 65.6287C253.658 64.8378 253.361 63.8326 252.57 63.3877L251.763 62.9427C252.718 62.3166 254.218 62.2836 254.91 62.3166H254.943C256.574 62.3166 258.09 63.0581 259.112 64.3434C260.117 65.6452 260.48 67.293 260.084 68.9244Z" fill="#232323"/>
<path d="M240.095 70.7206C237.574 70.3252 235.135 72.6321 234.624 75.8619C234.13 79.0917 235.761 82.0248 238.283 82.4038C240.804 82.7828 243.243 80.4923 243.753 77.2626C244.248 74.0493 242.616 71.1161 240.095 70.7206Z" fill="#232323"/>
<path d="M154.902 114.603C150.552 106.248 143.302 104.254 138.309 103.694C132.195 102.985 123.857 105.408 120.693 109.165L119.836 110.335C119.293 111.175 118.815 112.098 118.699 113.152C118.337 116.283 120.364 119.678 123.495 120.024C123.495 120.024 126.658 120.749 128.982 118.294C129.921 117.288 131.338 116.465 132.607 115.921C135.507 114.685 140.945 114.883 143.895 120.518C139.907 118.969 136.199 118.788 133.003 119.249C132.723 119.233 132.426 119.216 132.129 119.216C123.132 119.216 115.849 124.967 115.849 132.053C115.849 139.139 123.132 144.89 132.129 144.89C135.853 144.89 139.281 143.885 142.033 142.22C143.12 143.802 144.933 144.89 147.059 144.89C149.877 144.89 152.332 142.962 152.991 140.21C152.991 140.21 154.425 134.558 155.578 129.977C156.105 127.884 157.176 124.44 157.127 122.281C157.078 119.777 156.204 116.975 154.902 114.603Z" fill="#F5F5F5"/>
<path d="M110.115 54.2588C98.6128 54.2588 89.2695 64.3436 89.2695 76.7518C89.2695 89.1601 98.6293 99.2448 110.115 99.2448C121.6 99.2448 130.96 89.1601 130.96 76.7518C130.96 64.3436 121.617 54.2588 110.115 54.2588ZM110.115 95.9492C100.442 95.9492 92.5652 87.331 92.5652 76.7518C92.5652 66.1727 100.425 57.5545 110.115 57.5545C119.804 57.5545 127.664 66.1727 127.664 76.7518C127.664 87.331 119.788 95.9492 110.115 95.9492Z" fill="#232323"/>
<path d="M109.472 68.4631C106.737 68.4631 104.512 72.2532 104.512 76.9166C104.512 81.5964 106.737 85.37 109.472 85.37C112.208 85.37 114.432 81.5799 114.432 76.9166C114.432 72.2532 112.224 68.4631 109.472 68.4631Z" fill="#232323"/>
<path d="M87.5883 82.6787H87.061C87.061 82.6787 81.9032 82.5304 78.278 80.3058C86.2535 79.1029 92.367 72.2479 92.367 63.9428C92.367 54.7972 84.9517 47.3655 75.7897 47.3655C75.4602 47.3655 75.1306 47.3984 74.801 47.4149C74.6527 47.3984 74.488 47.3655 74.3396 47.3655H55.9003C55.0434 47.3655 54.236 47.5467 53.478 47.8269C53.4615 47.8269 53.445 47.8434 53.4285 47.8434C53.3132 47.8928 53.1978 47.9422 53.0825 47.9917C50.5448 48.9804 48.5839 51.0896 47.9412 53.7591L39.7679 88.2484C38.5321 93.4062 42.6352 98.3167 48.1555 98.3167C52.1762 98.3167 55.6531 95.6637 56.543 91.9231L59.1795 80.7672C59.196 80.8002 59.2125 80.8661 59.2125 80.8661C63.8923 98.9923 87.028 98.6298 87.028 98.6298H87.5553C91.9551 98.6298 95.5144 95.0705 95.5144 90.6707C95.5144 86.271 91.988 82.6787 87.5883 82.6787ZM63.9747 60.4493H74.7351H76.0204C77.0092 60.4493 78.8547 61.1579 78.5087 63.1188C78.3439 64.0911 77.7836 65.4258 75.6744 65.7059C75.6744 65.7059 74.5044 65.7389 74.3396 65.7389H62.7553L63.9747 60.4493Z" fill="#F5F5F5"/>
<path d="M86.8015 80.7626H86.3266C85.4875 80.7468 84.0786 80.5885 82.5429 80.2244C88.638 77.5014 92.9124 71.3906 92.9124 64.2982C92.9282 54.6729 85.0918 46.8364 75.4664 46.8364C75.1656 46.8364 74.8807 46.8523 74.5957 46.8681H74.5482C74.3899 46.8523 74.2316 46.8364 74.0733 46.8364H56.3582C55.3925 46.8364 54.4268 47.0264 53.4294 47.4063C53.2869 47.4538 53.1603 47.5172 53.097 47.5488C50.1207 48.7045 47.936 51.19 47.2236 54.1663L39.3713 87.3009C38.7222 90.0397 39.3555 92.8893 41.1286 95.1373C42.9967 97.512 45.8463 98.8577 48.9334 98.8577C53.5244 98.8577 57.4505 95.8498 58.4796 91.5278L59.8885 85.5911C62.6273 90.8471 67.44 94.7891 74.1208 97.0529C79.9625 99.0476 85.2501 99.1426 86.1683 99.1426C86.2474 99.1426 86.2791 99.1426 86.2949 99.1426H86.8015C91.8675 99.1426 95.9995 95.0265 95.9995 89.9606C95.9836 84.8787 91.8675 80.7626 86.8015 80.7626ZM86.8015 96.0714H86.2633C86.0575 96.0556 65.1761 96.1822 61.0125 80.0661C60.9492 79.8919 59.5402 75.8708 54.5534 74.8734C53.7302 74.6993 52.907 75.2534 52.7487 76.0766C52.5745 76.9157 53.1286 77.7231 53.9518 77.8814C56.4215 78.3721 57.5297 79.9394 57.8938 80.6202L55.4716 90.8313C54.7751 93.76 52.0838 95.8023 48.9175 95.8023C46.7803 95.8023 44.8173 94.8682 43.5349 93.2376C42.3634 91.7495 41.9201 89.8497 42.3634 88.0291L50.2157 54.8787C50.6906 52.8681 52.1946 51.2058 54.3001 50.3826C54.3793 50.3351 54.4743 50.3035 54.5851 50.256C55.1708 50.0343 55.7724 49.9077 56.3582 49.9077L74.1208 49.9235C74.2158 49.9393 74.3107 49.9552 74.4057 49.9552C74.4691 49.9552 74.5324 49.9552 74.6115 49.9552L74.8015 49.9393C75.0231 49.9235 75.2448 49.9077 75.4664 49.9077C83.3978 49.9077 89.857 56.3668 89.857 64.2982C89.857 71.2798 84.8385 77.0898 78.1577 78.388C77.5245 77.9289 76.9862 77.3906 76.6221 76.7574C76.1946 76.0133 75.2606 75.7758 74.5165 76.1874C73.7883 76.6149 73.535 77.5489 73.9625 78.293C76.9862 83.5173 85.8833 83.8339 86.3108 83.8497H86.8174C90.1894 83.8497 92.9282 86.5885 92.9282 89.9606C92.9124 93.3326 90.1736 96.0714 86.8015 96.0714Z" fill="#232323"/>
<path d="M156.418 113.927C156.402 113.894 156.402 113.861 156.385 113.828C156.237 113.548 156.072 113.317 155.924 113.054C155.842 112.938 155.776 112.806 155.71 112.691C152.068 106.561 146.301 102.969 138.523 102.079C132.36 101.37 123.247 103.628 119.391 108.209L118.485 109.461C117.892 110.384 117.266 111.538 117.101 112.971C116.887 114.899 117.381 116.926 118.452 118.557C119.111 119.546 119.952 120.304 120.891 120.831C116.854 123.484 114.267 127.538 114.267 132.07C114.267 140.062 122.308 146.554 132.195 146.554C135.59 146.554 138.852 145.796 141.72 144.346C143.153 145.747 145.098 146.554 147.125 146.554C150.717 146.554 153.815 144.115 154.655 140.638L157.242 130.405C157.341 130.026 157.457 129.598 157.572 129.137C158.149 126.961 158.89 124.259 158.824 122.265C158.725 119.48 157.803 116.481 156.418 113.927ZM154.359 128.263C154.227 128.741 154.111 129.186 154.013 129.581L151.425 139.831C150.948 141.841 149.168 143.242 147.092 143.242C145.609 143.242 144.274 142.533 143.417 141.298C143.104 140.836 142.577 140.573 142.049 140.573C141.753 140.573 141.456 140.655 141.192 140.803C138.572 142.385 135.441 143.226 132.146 143.226C124.071 143.226 117.513 138.2 117.513 132.037C117.513 128.988 119.111 126.236 121.698 124.21C121.698 124.21 132.591 114.586 146.136 121.491L146.119 121.425C146.103 121.359 146.07 121.276 146.053 121.21C144.406 117.074 141.736 115.245 139.808 114.438C137.287 113.4 134.37 113.383 131.981 114.405C131.009 114.817 129.163 115.74 127.812 117.157C126.197 118.87 123.972 118.426 123.89 118.409C123.824 118.393 123.775 118.393 123.709 118.376C122.374 118.228 121.55 117.256 121.188 116.695C120.528 115.707 120.232 114.471 120.364 113.317C120.446 112.543 120.841 111.834 121.188 111.274L121.962 110.203C124.681 106.99 132.393 104.65 138.127 105.309C145.345 106.133 150.354 109.412 153.452 115.328C153.469 115.344 153.485 115.361 153.485 115.377C154.21 116.613 155.496 118.491 155.496 122.314C155.496 123.847 154.853 126.401 154.359 128.263Z" fill="#232323"/>
<path d="M133.827 127.241C129.822 128.098 126.906 130.389 127.318 132.35C127.746 134.311 131.338 135.201 135.343 134.344C139.347 133.487 142.264 131.196 141.852 129.235C141.44 127.274 137.831 126.368 133.827 127.241Z" fill="#232323"/>
<path d="M235.811 123.798C235.811 113.581 227.242 105.309 216.646 105.309C206.216 105.309 197.746 113.367 197.515 123.386L197.499 123.369C197.499 123.485 197.499 123.616 197.499 123.732C197.499 123.748 197.499 123.765 197.499 123.798C197.499 123.831 197.499 123.847 197.499 123.88C197.317 135.201 205.622 143.292 216.927 143.308C225.314 143.325 231.279 139.419 234.328 134.443L234.806 133.586C235.547 132.235 236.107 130.801 236.388 129.285C236.437 129.021 236.47 128.791 236.47 128.626C236.47 127.588 236.173 126.681 235.679 125.907C235.761 125.215 235.811 124.523 235.811 123.798Z" fill="#F5F5F5"/>
<path d="M237.096 125.099L237.31 126.236C237.326 126.105 237.343 125.857 237.359 125.577C237.277 125.429 237.195 125.264 237.096 125.099Z" fill="white"/>
<path d="M210.583 122.166L222.563 121.853H222.843C223.387 121.853 223.898 121.59 224.211 121.128C224.524 120.683 224.574 120.107 224.376 119.596C223.107 116.415 220.075 114.372 216.647 114.372C213.994 114.372 211.589 115.641 210.04 117.668C209.908 117.849 209.743 118.063 209.578 118.343C209.43 118.574 209.298 118.805 209.166 119.052C209.183 119.019 207.601 122.249 210.583 122.166Z" fill="#232323"/>
<path d="M237.361 125.594C237.344 125.874 237.328 126.121 237.311 126.253L237.097 125.116C237.196 125.264 237.278 125.429 237.361 125.594C237.41 124.951 237.46 124.111 237.46 123.814C237.46 112.708 228.133 103.677 216.647 103.677C205.343 103.677 196.132 112.46 195.868 123.336H195.852C195.852 123.468 195.852 123.6 195.852 123.732C195.852 123.765 195.852 123.798 195.852 123.814C195.852 123.847 195.852 123.896 195.852 123.929C195.769 129.631 197.714 134.855 201.388 138.678C205.277 142.731 210.798 144.972 216.928 144.989C216.944 144.989 216.977 144.989 216.993 144.989C225.15 144.989 231.972 141.479 235.779 135.267L236.257 134.41C237.13 132.828 237.723 131.213 238.02 129.598C238.086 129.219 238.119 128.873 238.119 128.642C238.119 127.505 237.839 126.5 237.361 125.594ZM234.774 129.005C234.543 130.257 234.082 131.526 233.373 132.795L232.928 133.586C229.781 138.727 223.964 141.677 216.993 141.677C216.977 141.677 216.96 141.677 216.944 141.677C211.72 141.66 207.04 139.782 203.778 136.387C200.96 133.454 199.345 129.483 199.164 125.116H199.23C199.197 124.687 199.164 124.275 199.164 123.831C199.164 123.814 199.164 123.814 199.164 123.798C199.18 114.52 207.024 106.973 216.664 106.973C225.842 106.973 233.373 113.795 234.098 122.446C232.895 121.87 231.494 121.507 229.929 121.507C228.726 121.507 227.358 121.919 226.007 122.71C224.705 123.468 223.502 124.589 222.431 126.055C220.783 128.329 217.356 131.773 212.973 129.45C212.973 129.45 212.973 129.45 212.956 129.466C212.709 129.301 212.429 129.203 212.099 129.203C211.193 129.203 210.452 129.944 210.452 130.85C210.452 131.608 210.962 132.202 211.654 132.416C211.704 132.465 211.737 132.515 211.803 132.564C216.433 134.805 221.377 133.141 225.101 128.033C225.908 126.929 226.749 126.121 227.671 125.594C228.512 125.116 229.303 124.836 229.929 124.836C232.368 124.836 234.84 126.022 234.84 128.675C234.823 128.725 234.79 128.856 234.774 129.005Z" fill="#232323"/>
<path d="M269.806 111.603C269.74 111.587 271.981 111.966 269.806 111.603C265.423 110.878 260.034 111.109 255.882 114.784C256.458 111.406 256.953 103.611 247.988 103.15C243.622 102.919 239.799 106.149 238.794 110.401L232.285 136.766C230.406 144.61 238.826 152.041 247.659 146.538C249.439 145.434 250.197 143.407 250.642 141.347C250.658 141.298 250.674 141.248 250.691 141.182L252.273 134.871C252.899 129.895 255.371 127.143 259.49 126.83C262.489 126.599 268.471 128.972 269.608 128.972C274.403 128.972 278.309 125.083 278.309 120.271C278.309 115.542 274.519 111.702 269.806 111.603Z" fill="#F5F5F5"/>
<path d="M270.004 109.577C265.522 108.852 261.501 109.297 258.172 110.862C258.057 108.72 257.48 106.495 256.03 104.666C254.284 102.475 251.614 101.288 248.104 101.09C242.864 100.843 238.102 104.518 236.816 109.89L230.307 136.272C229.22 140.836 230.967 145.549 234.773 148.301C236.767 149.735 239.074 150.46 241.447 150.46C243.853 150.46 246.357 149.718 248.73 148.235C251.284 146.637 252.174 143.835 252.603 141.841C252.619 141.776 252.652 141.693 252.669 141.644L254.251 135.333C254.267 135.25 254.284 135.168 254.3 135.102C254.976 129.779 257.678 128.972 259.655 128.824C261.221 128.725 264.319 129.614 266.362 130.224C268.142 130.752 268.949 130.982 269.625 130.982C275.541 130.982 280.352 126.171 280.352 120.255C280.336 114.454 275.804 109.774 270.004 109.577ZM269.691 126.929C269.394 126.896 268.34 126.582 267.499 126.335C264.896 125.561 261.633 124.605 259.342 124.786C254.267 125.165 251.054 128.609 250.263 134.476L248.763 140.523C248.73 140.622 248.664 140.803 248.648 140.902C248.219 142.946 247.56 144.181 246.588 144.791C243.276 146.867 239.848 146.933 237.162 145.005C234.691 143.226 233.554 140.177 234.262 137.244L240.771 110.862C241.562 107.55 244.462 105.144 247.577 105.144C247.676 105.144 247.791 105.144 247.89 105.161C250.197 105.276 251.861 105.968 252.85 107.204C254.251 108.967 254.234 111.686 254.003 113.565L250.18 116.514C249.291 117.206 249.126 118.475 249.818 119.365C250.213 119.892 250.823 120.156 251.433 120.156C251.861 120.156 252.306 120.024 252.669 119.727L256.689 116.63C256.887 116.547 257.068 116.432 257.233 116.283C260.941 112.988 265.934 113.004 269.46 113.597C269.889 113.713 270.284 113.746 270.548 113.779C270.713 113.795 270.861 113.795 271.009 113.779C274.041 114.421 276.266 117.074 276.266 120.271C276.266 123.946 273.283 126.929 269.691 126.929Z" fill="#232323"/>
<path d="M74.9829 61.72L64.5293 61.7356L64.0435 63.8828H73.3686C73.5097 63.8828 74.2777 63.8671 74.5284 63.8514C75.5315 63.6947 75.8136 63.2245 75.9233 62.5663C75.986 62.2528 75.8919 62.1431 75.8606 62.0804C75.6568 61.861 75.218 61.72 74.9829 61.72Z" fill="#232323"/>
<path d="M74.9824 58.7578L63.3533 58.7735C62.6637 58.7735 62.0682 59.2437 61.9114 59.9333L60.7203 65.0425C60.6263 65.4814 60.7203 65.9515 61.0024 66.2963C61.2845 66.6568 61.7077 66.8605 62.1622 66.8605L73.3524 66.8449C73.5248 66.8449 74.6846 66.8135 74.6846 66.8135C74.7316 66.8135 74.7943 66.8135 74.8413 66.7979C77.0512 66.5001 78.4774 65.1679 78.8378 63.0678C79.0729 61.6729 78.5714 60.7169 78.1012 60.1683C77.2392 59.134 75.8757 58.7578 74.9824 58.7578ZM74.5279 63.8514C74.2614 63.8514 73.4935 63.8828 73.3681 63.8828H64.0429L64.5288 61.7356L74.9824 61.7199C75.2175 61.7199 75.6563 61.8453 75.86 62.0804C75.9071 62.1274 75.9854 62.2371 75.9384 62.5663C75.813 63.2245 75.5309 63.6947 74.5279 63.8514Z" fill="#232323"/>
<defs>
<filter id="filter0_d" x="4.17822" y="17.3704" width="104.096" height="72.2656" filterUnits="userSpaceOnUse" color-interpolation-filters="sRGB">
<feFlood flood-opacity="0" result="BackgroundImageFix"/>
<feColorMatrix in="SourceAlpha" type="matrix" values="0 0 0 0 0 0 0 0 0 0 0 0 0 0 0 0 0 0 127 0"/>
<feOffset dy="2"/>
<feGaussianBlur stdDeviation="1"/>
<feColorMatrix type="matrix" values="0 0 0 0 0 0 0 0 0 0 0 0 0 0 0 0 0 0 0.25 0"/>
<feBlend mode="normal" in2="BackgroundImageFix" result="effect1_dropShadow"/>
<feBlend mode="normal" in="SourceGraphic" in2="effect1_dropShadow" result="shape"/>
</filter>
<filter id="filter1_d" x="224.624" y="92.4436" width="98.3863" height="95.9666" filterUnits="userSpaceOnUse" color-interpolation-filters="sRGB">
<feFlood flood-opacity="0" result="BackgroundImageFix"/>
<feColorMatrix in="SourceAlpha" type="matrix" values="0 0 0 0 0 0 0 0 0 0 0 0 0 0 0 0 0 0 127 0"/>
<feOffset dy="2"/>
<feGaussianBlur stdDeviation="1"/>
<feColorMatrix type="matrix" values="0 0 0 0 0 0 0 0 0 0 0 0 0 0 0 0 0 0 0.25 0"/>
<feBlend mode="normal" in2="BackgroundImageFix" result="effect1_dropShadow"/>
<feBlend mode="normal" in="SourceGraphic" in2="effect1_dropShadow" result="shape"/>
</filter>
</defs>
</svg>
